<?xml version="1.0" encoding="utf-8"?>
<!-- Generator: Adobe Illustrator 26.0.1, SVG Export Plug-In . SVG Version: 6.00 Build 0)  -->
<svg version="1.1" xmlns="http://www.w3.org/2000/svg" xmlns:xlink="http://www.w3.org/1999/xlink" x="0px" y="0px"
	 viewBox="0 0 462.98 321.14" style="enable-background:new 0 0 462.98 321.14;" xml:space="preserve">
<style type="text/css">
	.st0{fill:#FFFFFF;}
	.st1{fill:none;stroke:#FFFFFF;stroke-width:0.8;stroke-linejoin:round;stroke-miterlimit:10;}
	.st2{fill:none;stroke:#1F77B4;stroke-width:1.5;stroke-linejoin:round;stroke-miterlimit:10;stroke-dasharray:5,10;}
	.st3{fill:none;stroke:#D32D5F;stroke-width:1.5;stroke-linejoin:round;stroke-miterlimit:10;stroke-dasharray:7.5,15;}
	.st4{fill:none;stroke:#FF9FD4;stroke-width:1.5;stroke-linejoin:round;stroke-miterlimit:10;stroke-dasharray:7.5,7.5;}
	.st5{fill:none;stroke:#8E8E93;stroke-width:1.5;stroke-linejoin:round;stroke-miterlimit:10;stroke-dasharray:7,4,4.5,4;}
	.st6{fill:none;stroke:#40C8E0;stroke-width:1.5;stroke-linejoin:round;stroke-miterlimit:10;stroke-dasharray:7,3.5,5,3.5;}
	.st7{fill:none;stroke:#FF453A;stroke-width:1.5;stroke-linejoin:round;stroke-miterlimit:10;stroke-dasharray:4.5,2,2,2;}
	
		.st8{fill:none;stroke:#5E5CE6;stroke-width:1.5;stroke-linejoin:round;stroke-miterlimit:10;stroke-dasharray:4.5,7.5,1.5,7.5,1.5,7.5;}
	
		.st9{fill:none;stroke:#ACAE68;stroke-width:1.5;stroke-linecap:round;stroke-linejoin:round;stroke-miterlimit:10;stroke-dasharray:4.5,3,1.5,3;}
	
		.st10{fill:none;stroke:#FF9F0A;stroke-width:1.5;stroke-linecap:round;stroke-linejoin:round;stroke-miterlimit:10;stroke-dasharray:8,10,1.5,10;}
	.st11{fill:none;stroke:#FFFFFF;stroke-width:0.8;stroke-linecap:square;stroke-miterlimit:10;}
	.st12{fill:none;stroke:#FFFFFF;stroke-width:0.7979;stroke-linecap:square;stroke-miterlimit:10;}
	.st13{fill:#FF453A;}
	.st14{fill:#FF9FD4;}
	.st15{fill:#ACAE68;}
	.st16{fill:#40C8E0;}
	.st17{fill:#FF9F0A;}
	.st18{fill:#5E5CE6;}
	.st19{fill:#D32D5F;}
	.st20{fill:#1F77B4;}
	.st21{fill:#8E8E93;}
</style>
<g id="Background">
	<rect width="462.98" height="321.14"/>
</g>
<g id="Data">
	<line class="st0" x1="49.06" y1="283.13" x2="49.06" y2="286.63"/>
	<line class="st1" x1="49.06" y1="283.13" x2="49.06" y2="286.63"/>
	<line class="st0" x1="96.8" y1="283.13" x2="96.8" y2="286.63"/>
	<line class="st1" x1="96.8" y1="283.13" x2="96.8" y2="286.63"/>
	<line class="st0" x1="144.55" y1="283.13" x2="144.55" y2="286.63"/>
	<line class="st1" x1="144.55" y1="283.13" x2="144.55" y2="286.63"/>
	<line class="st0" x1="192.29" y1="283.13" x2="192.29" y2="286.63"/>
	<line class="st1" x1="192.29" y1="283.13" x2="192.29" y2="286.63"/>
	<line class="st0" x1="240.03" y1="283.13" x2="240.03" y2="286.63"/>
	<line class="st1" x1="240.03" y1="283.13" x2="240.03" y2="286.63"/>
	<line class="st0" x1="287.78" y1="283.13" x2="287.78" y2="286.63"/>
	<line class="st1" x1="287.78" y1="283.13" x2="287.78" y2="286.63"/>
	<line class="st0" x1="335.52" y1="283.13" x2="335.52" y2="286.63"/>
	<line class="st1" x1="335.52" y1="283.13" x2="335.52" y2="286.63"/>
	<line class="st0" x1="383.26" y1="283.13" x2="383.26" y2="286.63"/>
	<line class="st1" x1="383.26" y1="283.13" x2="383.26" y2="286.63"/>
	<line class="st0" x1="42.38" y1="272.5" x2="38.88" y2="272.5"/>
	<line class="st1" x1="42.38" y1="272.5" x2="38.88" y2="272.5"/>
	<line class="st0" x1="42.38" y1="217.72" x2="38.88" y2="217.72"/>
	<line class="st1" x1="42.38" y1="217.72" x2="38.88" y2="217.72"/>
	<line class="st0" x1="42.38" y1="162.94" x2="38.88" y2="162.94"/>
	<line class="st1" x1="42.38" y1="163.05" x2="38.88" y2="163.05"/>
	<line class="st0" x1="42.38" y1="108.17" x2="38.88" y2="108.17"/>
	<line class="st1" x1="42.38" y1="108.62" x2="38.88" y2="108.62"/>
	<line class="st0" x1="42.38" y1="53.39" x2="38.88" y2="53.39"/>
	<line class="st1" x1="42.38" y1="53.19" x2="38.88" y2="53.19"/>
	<polyline class="st2" points="49.09,268.81 58.92,266.17 68.76,263.53 78.6,260.89 88.44,258.25 98.28,255.61 108.11,252.97 
		117.95,250.33 127.79,247.69 137.63,245.05 147.47,242.41 157.3,239.77 167.14,237.13 176.98,234.49 186.82,231.85 196.66,229.21 
		206.49,226.57 216.33,223.93 226.17,221.29 236.01,218.65 245.85,216.01 255.68,213.37 265.52,210.73 275.36,208.09 285.2,205.45 
		295.04,202.81 304.87,200.17 314.71,197.53 324.55,194.89 334.39,192.25 344.23,189.61 354.06,186.97 363.9,184.33 373.74,181.69 	
		"/>
	<polyline class="st3" points="49.09,214.53 58.92,213.16 68.76,211.79 78.6,210.42 88.44,209.05 98.28,207.69 108.11,206.32 
		117.95,204.95 127.79,203.58 137.63,202.21 147.47,200.84 157.3,199.47 167.14,198.1 176.98,196.73 186.82,195.36 196.66,194 
		206.49,192.63 216.33,191.26 226.17,189.89 236.01,188.52 245.85,187.15 255.68,185.78 265.52,184.41 275.36,183.04 285.2,181.67 
		295.04,180.31 304.87,178.94 314.71,177.57 324.55,176.2 334.39,174.83 344.23,173.46 354.06,172.09 363.9,170.72 373.74,169.35 	
		"/>
	<polyline class="st4" points="49.09,171.51 58.92,168.78 68.76,166.06 78.6,163.33 88.44,160.61 98.28,157.88 108.11,155.16 
		117.95,152.43 127.79,149.71 137.63,146.98 147.47,144.26 157.3,141.53 167.14,138.81 176.98,136.08 186.82,133.36 196.66,130.63 
		206.49,127.91 216.33,125.18 226.17,122.46 236.01,119.73 245.85,117.01 255.68,114.29 265.52,111.56 275.36,108.84 285.2,106.11 
		295.04,103.39 304.87,100.66 314.71,97.94 324.55,95.21 334.39,92.49 344.23,89.76 354.06,87.04 363.9,84.31 373.74,81.59 	"/>
	<polyline class="st5" points="49.09,271.03 58.92,268.66 68.76,266.28 78.6,263.91 88.44,261.53 98.28,259.15 108.11,256.78 
		117.95,254.4 127.79,252.03 137.63,249.65 147.47,247.28 157.3,244.9 167.14,242.53 176.98,240.15 186.82,237.78 196.66,235.4 
		206.49,233.03 216.33,230.65 226.17,228.28 236.01,225.9 245.85,223.53 255.68,221.15 265.52,218.78 275.36,216.4 285.2,214.03 
		295.04,211.65 304.87,209.28 314.71,206.9 324.55,204.53 334.39,202.15 344.23,199.78 354.06,197.4 363.9,195.03 373.74,192.65 	
		"/>
	<polyline class="st6" points="49.09,219.23 58.92,216.34 68.76,213.46 78.6,210.57 88.44,207.69 98.28,204.8 108.11,201.92 
		117.95,199.03 127.79,196.14 137.63,193.26 147.47,190.37 157.3,187.49 167.14,184.6 176.98,181.72 186.82,178.83 196.66,175.94 
		206.49,173.06 216.33,170.17 226.17,167.29 236.01,164.4 245.85,161.52 255.68,158.63 265.52,155.74 275.36,152.86 285.2,149.97 
		295.04,147.09 304.87,144.2 314.71,141.31 324.55,138.43 334.39,135.54 344.23,132.66 354.06,129.77 363.9,126.89 373.74,124 	"/>
	<polyline class="st7" points="49.09,220.5 58.92,214.7 68.76,208.9 78.6,203.1 88.44,197.3 98.28,191.5 108.11,185.7 117.95,179.9 
		127.79,174.1 137.63,168.3 147.47,162.5 157.3,156.7 167.14,150.9 176.98,145.1 186.82,139.3 196.66,133.5 206.49,127.7 
		216.33,121.9 226.17,116.1 236.01,110.31 245.85,104.51 255.68,98.71 265.52,92.91 275.36,87.11 285.2,81.31 295.04,75.51 
		304.87,69.71 314.71,63.91 324.55,58.11 334.39,52.31 344.23,46.51 354.06,40.71 363.9,34.91 373.74,29.11 	"/>
	<polyline class="st8" points="49.09,218.92 58.92,216.94 68.76,214.97 78.6,213 88.44,211.02 98.28,209.05 108.11,207.08 
		117.95,205.1 127.79,203.13 137.63,201.16 147.47,199.18 157.3,197.21 167.14,195.24 176.98,193.26 186.82,191.29 196.66,189.32 
		206.49,187.34 216.33,185.37 226.17,183.4 236.01,181.42 245.85,179.45 255.68,177.48 265.52,175.5 275.36,173.53 285.2,171.56 
		295.04,169.58 304.87,167.61 314.71,165.64 324.55,163.66 334.39,161.69 344.23,159.72 354.06,157.74 363.9,155.77 373.74,153.8 	
		"/>
	<polyline class="st9" points="49.09,206.83 58.92,204.04 68.76,201.25 78.6,198.46 88.44,195.67 98.28,192.88 108.11,190.09 
		117.95,187.3 127.79,184.51 137.63,181.72 147.47,178.93 157.3,176.14 167.14,173.35 176.98,170.55 186.82,167.76 196.66,164.97 
		206.49,162.18 216.33,159.39 226.17,156.6 236.01,153.81 245.85,151.02 255.68,148.23 265.52,145.44 275.36,142.65 285.2,139.86 
		295.04,137.07 304.87,134.28 314.71,131.49 324.55,128.7 334.39,125.91 344.23,123.12 354.06,120.33 363.9,117.54 373.74,114.74 	
		"/>
	<g>
		<polyline class="st10" points="49.09,188.36 58.92,186.75 68.76,185.13 78.6,183.52 88.44,181.9 98.28,180.29 108.11,178.67 
			117.95,177.05 127.79,175.44 137.63,173.82 147.47,172.21 157.3,170.59 167.14,168.98 176.98,167.36 186.82,165.74 196.66,164.13 
			206.49,162.51 216.33,160.9 226.17,159.28 236.01,157.67 245.85,156.05 255.68,154.43 265.52,152.82 275.36,151.2 285.2,149.59 
			295.04,147.97 304.87,146.36 314.71,144.74 324.55,143.13 334.39,141.51 344.23,139.89 354.06,138.28 363.9,136.66 373.74,135.05 
					"/>
	</g>
	<line class="st11" x1="42.38" y1="283.13" x2="42.38" y2="17.01"/>
	<line class="st12" x1="42.38" y1="283.13" x2="397.6" y2="283.13"/>
	<g>
		<g>
			<path class="st13" d="M383.75,22.23h-2.44v-0.87h5.85v0.87h-2.44v6.88h-0.97V22.23z"/>
			<path class="st13" d="M388.98,28.86c-0.39-0.24-0.69-0.57-0.91-1.01c-0.22-0.44-0.33-0.95-0.33-1.54v-0.01
				c0-0.59,0.11-1.11,0.33-1.54c0.22-0.43,0.52-0.76,0.91-1c0.39-0.23,0.84-0.35,1.35-0.35c0.52,0,0.97,0.12,1.36,0.35
				c0.39,0.24,0.69,0.57,0.91,1c0.22,0.43,0.33,0.95,0.33,1.54v0.01c0,0.59-0.11,1.11-0.33,1.54c-0.22,0.43-0.52,0.77-0.91,1
				s-0.84,0.35-1.35,0.35S389.37,29.1,388.98,28.86z M391.2,28.15c0.24-0.16,0.43-0.4,0.56-0.71c0.13-0.31,0.2-0.68,0.2-1.12v-0.01
				c0-0.44-0.07-0.81-0.2-1.12c-0.13-0.31-0.32-0.54-0.57-0.7s-0.53-0.24-0.86-0.24c-0.32,0-0.61,0.08-0.85,0.24
				c-0.25,0.16-0.44,0.4-0.57,0.7c-0.14,0.31-0.2,0.68-0.2,1.11v0.01c0,0.44,0.07,0.81,0.2,1.12s0.33,0.55,0.57,0.71
				s0.53,0.24,0.86,0.24C390.68,28.39,390.96,28.31,391.2,28.15z"/>
			<path class="st13" d="M394.12,30.98c-0.09-0.01-0.17-0.02-0.23-0.03v-0.76c0.04,0.01,0.08,0.01,0.14,0.02
				c0.05,0.01,0.11,0.01,0.16,0.01c0.3,0,0.53-0.05,0.71-0.16c0.18-0.1,0.32-0.31,0.43-0.63l0.11-0.32l-2.07-5.59h1l1.61,4.87
				l-0.2-0.21h0.28l-0.2,0.21l1.62-4.87h0.98l-2.18,5.94c-0.13,0.35-0.28,0.64-0.45,0.87c-0.16,0.23-0.36,0.39-0.6,0.5
				s-0.52,0.16-0.85,0.16C394.3,30.99,394.21,30.99,394.12,30.98z"/>
			<path class="st13" d="M400.15,28.86c-0.39-0.24-0.69-0.57-0.91-1.01c-0.22-0.44-0.33-0.95-0.33-1.54v-0.01
				c0-0.59,0.11-1.11,0.33-1.54c0.22-0.43,0.52-0.76,0.91-1c0.39-0.23,0.84-0.35,1.35-0.35c0.52,0,0.97,0.12,1.36,0.35
				c0.39,0.24,0.69,0.57,0.91,1c0.22,0.43,0.33,0.95,0.33,1.54v0.01c0,0.59-0.11,1.11-0.33,1.54c-0.22,0.43-0.52,0.77-0.91,1
				s-0.84,0.35-1.35,0.35S400.54,29.1,400.15,28.86z M402.37,28.15c0.24-0.16,0.43-0.4,0.56-0.71c0.13-0.31,0.2-0.68,0.2-1.12v-0.01
				c0-0.44-0.07-0.81-0.2-1.12c-0.13-0.31-0.32-0.54-0.57-0.7s-0.53-0.24-0.86-0.24c-0.32,0-0.61,0.08-0.85,0.24
				c-0.25,0.16-0.44,0.4-0.57,0.7c-0.14,0.31-0.2,0.68-0.2,1.11v0.01c0,0.44,0.07,0.81,0.2,1.12s0.33,0.55,0.57,0.71
				s0.53,0.24,0.86,0.24C401.84,28.39,402.13,28.31,402.37,28.15z"/>
			<path class="st13" d="M405.69,28.85c-0.25-0.24-0.38-0.63-0.38-1.17V24.3h-0.82v-0.77h0.82v-1.51h0.97v1.51h1.06v0.77h-1.06v3.38
				c0,0.3,0.06,0.5,0.19,0.6s0.32,0.16,0.57,0.16c0.06,0,0.11,0,0.16-0.01c0.05-0.01,0.1-0.01,0.14-0.01v0.76
				c-0.06,0.01-0.13,0.01-0.22,0.02c-0.09,0.01-0.18,0.01-0.28,0.01C406.32,29.22,405.94,29.1,405.69,28.85z"/>
			<path class="st13" d="M408.98,29.01c-0.28-0.14-0.5-0.34-0.65-0.59c-0.16-0.25-0.23-0.55-0.23-0.89v-0.01
				c0-0.48,0.18-0.86,0.53-1.14c0.35-0.28,0.85-0.44,1.49-0.48l2.07-0.12v0.73l-1.96,0.12c-0.37,0.02-0.66,0.11-0.87,0.27
				c-0.21,0.16-0.31,0.37-0.31,0.63v0.01c0,0.27,0.1,0.48,0.3,0.64c0.2,0.16,0.47,0.24,0.81,0.24c0.29,0,0.56-0.06,0.79-0.19
				c0.23-0.12,0.42-0.29,0.56-0.51s0.21-0.46,0.21-0.72v-1.65c0-0.34-0.11-0.61-0.32-0.8s-0.51-0.29-0.91-0.29
				c-0.36,0-0.65,0.08-0.87,0.23c-0.22,0.16-0.36,0.36-0.41,0.61l-0.01,0.05h-0.9l0-0.06c0.03-0.31,0.13-0.59,0.31-0.84
				c0.18-0.25,0.43-0.45,0.75-0.6c0.32-0.15,0.7-0.22,1.13-0.22c0.44,0,0.82,0.08,1.14,0.23s0.57,0.36,0.74,0.64
				c0.18,0.27,0.26,0.6,0.26,0.97v3.86h-0.93V28.2h-0.02c-0.11,0.2-0.25,0.38-0.43,0.53s-0.38,0.27-0.6,0.35s-0.46,0.13-0.71,0.13
				C409.59,29.22,409.26,29.15,408.98,29.01z"/>
		</g>
	</g>
	<g>
		<g>
			<path class="st14" d="M381.79,75.01h0.97v3.35h4.25v-3.35h0.97v7.75h-0.97v-3.53h-4.25v3.53h-0.97V75.01z"/>
			<path class="st14" d="M390.28,82.51c-0.39-0.24-0.69-0.57-0.91-1.01c-0.22-0.44-0.33-0.95-0.33-1.54v-0.01
				c0-0.59,0.11-1.11,0.33-1.54c0.22-0.43,0.52-0.76,0.91-1c0.39-0.23,0.84-0.35,1.35-0.35c0.52,0,0.97,0.12,1.36,0.35
				c0.39,0.23,0.69,0.57,0.91,1c0.22,0.43,0.33,0.94,0.33,1.54v0.01c0,0.59-0.11,1.11-0.33,1.54s-0.52,0.77-0.91,1
				s-0.84,0.35-1.35,0.35S390.67,82.75,390.28,82.51z M392.5,81.79c0.24-0.16,0.43-0.4,0.56-0.71c0.13-0.31,0.2-0.68,0.2-1.12v-0.01
				c0-0.44-0.07-0.81-0.2-1.12c-0.13-0.31-0.32-0.54-0.57-0.7s-0.53-0.24-0.86-0.24c-0.32,0-0.61,0.08-0.85,0.24
				c-0.25,0.16-0.44,0.4-0.57,0.7c-0.14,0.31-0.2,0.68-0.2,1.11v0.01c0,0.44,0.07,0.81,0.2,1.12c0.14,0.31,0.33,0.55,0.57,0.71
				c0.25,0.16,0.53,0.24,0.86,0.24C391.98,82.04,392.26,81.96,392.5,81.79z"/>
			<path class="st14" d="M395.15,77.17h0.93v0.79h0.02c0.15-0.26,0.37-0.48,0.66-0.65c0.29-0.17,0.64-0.25,1.06-0.25
				c0.61,0,1.09,0.19,1.43,0.56c0.34,0.37,0.51,0.88,0.51,1.51v3.63h-0.93V79.3c0-0.45-0.11-0.8-0.32-1.04
				c-0.21-0.24-0.53-0.36-0.96-0.36c-0.29,0-0.55,0.07-0.77,0.2c-0.22,0.13-0.39,0.31-0.51,0.55s-0.18,0.51-0.18,0.83v3.29h-0.93
				V77.17z"/>
			<path class="st14" d="M401.79,82.51c-0.36-0.24-0.63-0.57-0.83-1.01c-0.2-0.43-0.3-0.95-0.3-1.53v-0.01c0-0.59,0.1-1.1,0.3-1.53
				c0.2-0.43,0.48-0.77,0.83-1.01c0.35-0.24,0.76-0.36,1.23-0.36c0.39,0,0.75,0.09,1.06,0.28s0.55,0.44,0.73,0.76h0.02v-3.1h0.93
				v7.75h-0.93v-0.95h-0.02c-0.18,0.33-0.41,0.58-0.72,0.77c-0.3,0.19-0.65,0.28-1.06,0.28C402.56,82.86,402.14,82.75,401.79,82.51z
				 M404.06,81.78c0.24-0.17,0.43-0.41,0.57-0.73s0.21-0.67,0.21-1.09v-0.01c0-0.42-0.07-0.78-0.21-1.09
				c-0.14-0.31-0.33-0.55-0.57-0.72c-0.24-0.17-0.52-0.26-0.83-0.26c-0.33,0-0.61,0.08-0.85,0.25c-0.24,0.17-0.42,0.41-0.55,0.71
				s-0.19,0.67-0.19,1.1v0.01c0,0.43,0.06,0.79,0.19,1.11s0.31,0.55,0.55,0.72c0.24,0.17,0.53,0.25,0.85,0.25
				C403.53,82.04,403.81,81.95,404.06,81.78z"/>
			<path class="st14" d="M407.68,82.65c-0.28-0.14-0.5-0.34-0.65-0.59c-0.16-0.25-0.23-0.55-0.23-0.89v-0.01
				c0-0.48,0.18-0.86,0.53-1.14c0.35-0.28,0.85-0.44,1.49-0.48l2.07-0.12v0.73l-1.96,0.12c-0.37,0.02-0.66,0.11-0.87,0.27
				s-0.31,0.37-0.31,0.63v0.01c0,0.27,0.1,0.48,0.3,0.64s0.47,0.24,0.81,0.24c0.29,0,0.56-0.06,0.79-0.19
				c0.23-0.12,0.42-0.29,0.56-0.51s0.21-0.46,0.21-0.73v-1.65c0-0.34-0.11-0.61-0.32-0.8c-0.21-0.2-0.51-0.29-0.91-0.29
				c-0.36,0-0.65,0.08-0.87,0.23c-0.22,0.16-0.36,0.36-0.41,0.61l-0.01,0.05H407l0-0.06c0.03-0.31,0.13-0.59,0.31-0.84
				s0.43-0.45,0.75-0.6c0.32-0.15,0.7-0.22,1.13-0.22c0.44,0,0.82,0.08,1.14,0.23s0.57,0.36,0.74,0.64c0.18,0.27,0.26,0.6,0.26,0.97
				v3.86h-0.93v-0.91h-0.02c-0.11,0.2-0.25,0.38-0.43,0.53c-0.18,0.15-0.38,0.27-0.6,0.35c-0.22,0.08-0.46,0.13-0.71,0.13
				C408.28,82.86,407.96,82.79,407.68,82.65z"/>
		</g>
	</g>
	<g>
		<g>
			<path class="st15" d="M381.79,106.94h0.97v3.35h4.25v-3.35h0.97v7.75h-0.97v-3.53h-4.25v3.53h-0.97V106.94z"/>
			<path class="st15" d="M389.59,116.56c-0.09-0.01-0.17-0.02-0.23-0.03v-0.76c0.04,0.01,0.08,0.01,0.14,0.02s0.11,0.01,0.16,0.01
				c0.3,0,0.53-0.05,0.71-0.16c0.18-0.1,0.32-0.31,0.43-0.63l0.11-0.32l-2.07-5.59h1l1.61,4.87l-0.2-0.21h0.28l-0.2,0.21l1.62-4.87
				h0.98l-2.18,5.94c-0.13,0.35-0.28,0.64-0.45,0.87c-0.16,0.23-0.36,0.39-0.6,0.5s-0.52,0.16-0.85,0.16
				C389.77,116.57,389.68,116.57,389.59,116.56z"/>
			<path class="st15" d="M395.53,114.55c-0.29-0.17-0.51-0.41-0.66-0.72c-0.15-0.31-0.23-0.68-0.23-1.1v-3.63h0.93v3.46
				c0,0.45,0.11,0.8,0.32,1.04c0.21,0.24,0.54,0.36,0.96,0.36c0.29,0,0.55-0.07,0.77-0.2c0.22-0.13,0.39-0.31,0.51-0.55
				c0.12-0.24,0.18-0.52,0.18-0.83v-3.29h0.93v5.59h-0.93v-0.79h-0.02c-0.15,0.26-0.37,0.48-0.65,0.65
				c-0.29,0.17-0.64,0.25-1.07,0.25C396.16,114.8,395.81,114.72,395.53,114.55z"/>
			<path class="st15" d="M400.45,109.11h0.93v0.79h0.02c0.15-0.26,0.37-0.48,0.66-0.65c0.29-0.17,0.64-0.25,1.06-0.25
				c0.61,0,1.09,0.19,1.43,0.56c0.34,0.37,0.51,0.88,0.51,1.51v3.63h-0.93v-3.46c0-0.45-0.11-0.8-0.32-1.04
				c-0.21-0.24-0.53-0.36-0.96-0.36c-0.29,0-0.55,0.07-0.77,0.2c-0.22,0.13-0.39,0.31-0.51,0.55s-0.18,0.51-0.18,0.83v3.29h-0.93
				V109.11z"/>
			<path class="st15" d="M407.08,114.44c-0.36-0.24-0.63-0.57-0.83-1.01c-0.2-0.43-0.3-0.95-0.3-1.53v-0.01c0-0.59,0.1-1.1,0.3-1.53
				c0.2-0.43,0.48-0.77,0.83-1.01c0.35-0.24,0.76-0.36,1.23-0.36c0.39,0,0.75,0.09,1.06,0.28s0.55,0.44,0.73,0.76h0.02v-3.1h0.93
				v7.75h-0.93v-0.95h-0.02c-0.18,0.33-0.41,0.58-0.72,0.77c-0.3,0.19-0.65,0.28-1.06,0.28
				C407.86,114.8,407.44,114.68,407.08,114.44z M409.35,113.72c0.24-0.17,0.43-0.41,0.57-0.73s0.21-0.67,0.21-1.09v-0.01
				c0-0.42-0.07-0.78-0.21-1.09c-0.14-0.31-0.33-0.55-0.57-0.72c-0.24-0.17-0.52-0.26-0.83-0.26c-0.33,0-0.61,0.08-0.85,0.25
				c-0.24,0.17-0.42,0.41-0.55,0.71s-0.19,0.67-0.19,1.1v0.01c0,0.43,0.06,0.79,0.19,1.11s0.31,0.55,0.55,0.72
				c0.24,0.17,0.53,0.25,0.85,0.25C408.83,113.97,409.11,113.89,409.35,113.72z"/>
			<path class="st15" d="M412.97,114.59c-0.28-0.14-0.5-0.34-0.65-0.59c-0.16-0.25-0.23-0.55-0.23-0.89v-0.01
				c0-0.48,0.18-0.86,0.53-1.14c0.35-0.28,0.85-0.44,1.49-0.48l2.07-0.12v0.73l-1.96,0.12c-0.37,0.02-0.66,0.11-0.87,0.27
				s-0.31,0.37-0.31,0.63v0.01c0,0.27,0.1,0.48,0.3,0.64s0.47,0.24,0.81,0.24c0.29,0,0.56-0.06,0.79-0.19
				c0.23-0.12,0.42-0.29,0.56-0.51s0.21-0.46,0.21-0.73v-1.65c0-0.34-0.11-0.61-0.32-0.8c-0.21-0.2-0.51-0.29-0.91-0.29
				c-0.36,0-0.65,0.08-0.87,0.23c-0.22,0.16-0.36,0.36-0.41,0.61l-0.01,0.05h-0.9l0-0.06c0.03-0.31,0.13-0.59,0.31-0.84
				s0.43-0.45,0.75-0.6c0.32-0.15,0.7-0.22,1.13-0.22c0.44,0,0.82,0.08,1.14,0.23s0.57,0.36,0.74,0.64c0.18,0.27,0.26,0.6,0.26,0.97
				v3.86h-0.93v-0.91h-0.02c-0.11,0.2-0.25,0.38-0.43,0.53c-0.18,0.15-0.38,0.27-0.6,0.35c-0.22,0.08-0.46,0.13-0.71,0.13
				C413.58,114.8,413.25,114.73,412.97,114.59z"/>
			<path class="st15" d="M417.94,107.99c-0.11-0.11-0.17-0.25-0.17-0.41c0-0.16,0.06-0.3,0.17-0.42c0.11-0.11,0.25-0.17,0.41-0.17
				c0.17,0,0.3,0.06,0.42,0.17c0.11,0.11,0.17,0.25,0.17,0.42c0,0.16-0.06,0.3-0.17,0.41c-0.11,0.11-0.25,0.17-0.42,0.17
				C418.19,108.16,418.05,108.11,417.94,107.99z M417.88,109.11h0.93v5.59h-0.93V109.11z"/>
		</g>
	</g>
	<g>
		<g>
			<path class="st16" d="M381.79,118.8h0.94l5.09,7.3l-1.22-1.18h0.43v-6.12h0.96v7.75h-0.94l-5.09-7.3l1.22,1.18h-0.43v6.12h-0.96
				V118.8z"/>
			<path class="st16" d="M389.44,119.84c-0.11-0.11-0.17-0.25-0.17-0.41c0-0.16,0.06-0.3,0.17-0.42c0.11-0.11,0.25-0.17,0.41-0.17
				c0.17,0,0.3,0.06,0.42,0.17c0.11,0.11,0.17,0.25,0.17,0.42c0,0.16-0.06,0.3-0.17,0.41c-0.11,0.11-0.25,0.17-0.42,0.17
				C389.69,120.02,389.55,119.96,389.44,119.84z M389.38,120.96h0.93v5.59h-0.93V120.96z"/>
			<path class="st16" d="M392.43,126.45c-0.32-0.14-0.57-0.33-0.75-0.59s-0.3-0.54-0.34-0.88l-0.01-0.05h0.94l0.01,0.05
				c0.06,0.28,0.19,0.5,0.4,0.65c0.21,0.16,0.51,0.23,0.89,0.23c0.25,0,0.47-0.03,0.65-0.1c0.18-0.07,0.32-0.16,0.41-0.29
				c0.1-0.12,0.14-0.27,0.14-0.44v-0.01c0-0.2-0.06-0.36-0.18-0.48s-0.34-0.22-0.66-0.3l-0.89-0.21c-0.53-0.13-0.92-0.31-1.18-0.57
				c-0.26-0.25-0.39-0.58-0.39-0.98v-0.01c0-0.32,0.09-0.61,0.26-0.85s0.42-0.44,0.73-0.58s0.67-0.21,1.07-0.21
				c0.41,0,0.76,0.07,1.07,0.22c0.3,0.14,0.54,0.34,0.71,0.59c0.17,0.25,0.27,0.53,0.29,0.84l0.01,0.07h-0.89l0-0.04
				c-0.04-0.27-0.16-0.49-0.36-0.66s-0.48-0.25-0.82-0.25c-0.23,0-0.42,0.03-0.59,0.1s-0.29,0.16-0.38,0.29
				c-0.09,0.12-0.13,0.27-0.13,0.43v0.01c0,0.19,0.07,0.35,0.2,0.48c0.14,0.13,0.36,0.24,0.67,0.31l0.89,0.21
				c0.57,0.14,0.96,0.32,1.19,0.56c0.23,0.24,0.34,0.56,0.34,0.95v0.01c0,0.33-0.09,0.61-0.28,0.86c-0.19,0.25-0.45,0.45-0.77,0.59
				c-0.33,0.14-0.7,0.21-1.11,0.21C393.13,126.65,392.75,126.58,392.43,126.45z"/>
			<path class="st16" d="M397.54,126.45c-0.32-0.14-0.57-0.33-0.75-0.59s-0.3-0.54-0.34-0.88l-0.01-0.05h0.94l0.01,0.05
				c0.06,0.28,0.19,0.5,0.4,0.65c0.21,0.16,0.51,0.23,0.89,0.23c0.25,0,0.47-0.03,0.65-0.1c0.18-0.07,0.32-0.16,0.41-0.29
				c0.1-0.12,0.14-0.27,0.14-0.44v-0.01c0-0.2-0.06-0.36-0.18-0.48s-0.34-0.22-0.66-0.3l-0.89-0.21c-0.53-0.13-0.92-0.31-1.18-0.57
				c-0.26-0.25-0.39-0.58-0.39-0.98v-0.01c0-0.32,0.09-0.61,0.26-0.85s0.42-0.44,0.73-0.58s0.67-0.21,1.07-0.21
				c0.41,0,0.76,0.07,1.07,0.22c0.3,0.14,0.54,0.34,0.71,0.59c0.17,0.25,0.27,0.53,0.29,0.84l0.01,0.07h-0.89l0-0.04
				c-0.04-0.27-0.16-0.49-0.36-0.66s-0.48-0.25-0.82-0.25c-0.23,0-0.42,0.03-0.59,0.1s-0.29,0.16-0.38,0.29
				c-0.09,0.12-0.13,0.27-0.13,0.43v0.01c0,0.19,0.07,0.35,0.2,0.48c0.14,0.13,0.36,0.24,0.67,0.31l0.89,0.21
				c0.57,0.14,0.96,0.32,1.19,0.56c0.23,0.24,0.34,0.56,0.34,0.95v0.01c0,0.33-0.09,0.61-0.28,0.86c-0.19,0.25-0.45,0.45-0.77,0.59
				c-0.33,0.14-0.7,0.21-1.11,0.21C398.23,126.65,397.86,126.58,397.54,126.45z"/>
			<path class="st16" d="M402.46,126.45c-0.28-0.14-0.5-0.34-0.65-0.59c-0.16-0.25-0.23-0.55-0.23-0.89v-0.01
				c0-0.48,0.18-0.86,0.53-1.14c0.35-0.28,0.85-0.44,1.49-0.48l2.07-0.12v0.73l-1.96,0.12c-0.37,0.02-0.66,0.11-0.87,0.27
				s-0.31,0.37-0.31,0.63v0.01c0,0.27,0.1,0.48,0.3,0.64s0.47,0.24,0.81,0.24c0.29,0,0.56-0.06,0.79-0.19
				c0.23-0.12,0.42-0.29,0.56-0.51s0.21-0.46,0.21-0.73v-1.65c0-0.34-0.11-0.61-0.32-0.8c-0.21-0.2-0.51-0.29-0.91-0.29
				c-0.36,0-0.65,0.08-0.87,0.23c-0.22,0.16-0.36,0.36-0.41,0.61l-0.01,0.05h-0.9l0-0.06c0.03-0.31,0.13-0.59,0.31-0.84
				s0.43-0.45,0.75-0.6c0.32-0.15,0.7-0.22,1.13-0.22c0.44,0,0.82,0.08,1.14,0.23s0.57,0.36,0.74,0.64c0.18,0.27,0.26,0.6,0.26,0.97
				v3.86h-0.93v-0.91h-0.02c-0.11,0.2-0.25,0.38-0.43,0.53c-0.18,0.15-0.38,0.27-0.6,0.35c-0.22,0.08-0.46,0.13-0.71,0.13
				C403.06,126.65,402.74,126.58,402.46,126.45z"/>
			<path class="st16" d="M407.31,120.96h0.93v0.79h0.02c0.15-0.26,0.37-0.48,0.66-0.65c0.29-0.17,0.64-0.25,1.06-0.25
				c0.61,0,1.09,0.19,1.43,0.56c0.34,0.37,0.51,0.88,0.51,1.51v3.63h-0.93v-3.46c0-0.45-0.11-0.8-0.32-1.04
				c-0.21-0.24-0.53-0.36-0.96-0.36c-0.29,0-0.55,0.07-0.77,0.2c-0.22,0.13-0.39,0.31-0.51,0.55s-0.18,0.51-0.18,0.83v3.29h-0.93
				V120.96z"/>
		</g>
	</g>
	<g>
		<g>
			<path class="st17" d="M383.16,137.69c-0.53-0.33-0.94-0.79-1.23-1.39c-0.29-0.6-0.44-1.31-0.44-2.12v-0.01
				c0-0.81,0.14-1.52,0.44-2.12c0.29-0.6,0.7-1.06,1.23-1.39c0.53-0.33,1.16-0.49,1.87-0.49c0.54,0,1.03,0.1,1.47,0.31
				s0.81,0.49,1.1,0.85c0.3,0.37,0.49,0.79,0.59,1.28l0.01,0.05h-0.98l-0.04-0.12c-0.1-0.31-0.25-0.58-0.45-0.8
				c-0.2-0.22-0.44-0.39-0.73-0.51c-0.29-0.12-0.61-0.18-0.98-0.18c-0.52,0-0.96,0.13-1.34,0.38c-0.38,0.26-0.68,0.62-0.89,1.08
				c-0.21,0.46-0.31,1.01-0.31,1.64v0.01c0,0.63,0.1,1.17,0.31,1.64c0.21,0.47,0.51,0.83,0.89,1.09c0.38,0.26,0.83,0.39,1.34,0.39
				c0.36,0,0.69-0.06,0.97-0.18c0.29-0.12,0.53-0.29,0.73-0.52c0.2-0.23,0.36-0.52,0.47-0.86l0.02-0.05h0.98l-0.01,0.05
				c-0.1,0.49-0.29,0.92-0.58,1.29c-0.29,0.37-0.66,0.65-1.1,0.85c-0.44,0.2-0.93,0.3-1.47,0.3
				C384.31,138.19,383.69,138.02,383.16,137.69z"/>
			<path class="st17" d="M389.23,130.31h0.93v3.06h0.02c0.15-0.31,0.37-0.56,0.67-0.74c0.3-0.18,0.65-0.26,1.07-0.26
				c0.4,0,0.75,0.1,1.04,0.29c0.3,0.19,0.53,0.46,0.7,0.8c0.17,0.34,0.25,0.74,0.25,1.19v3.42h-0.93v-3.26c0-0.5-0.12-0.9-0.37-1.18
				s-0.58-0.42-1.02-0.42c-0.29,0-0.54,0.07-0.75,0.2s-0.38,0.32-0.5,0.56s-0.18,0.52-0.18,0.84v3.26h-0.93V130.31z"/>
			<path class="st17" d="M396.02,137.81c-0.38-0.24-0.68-0.57-0.89-1c-0.21-0.43-0.31-0.94-0.31-1.52v-0.01
				c0-0.58,0.1-1.08,0.31-1.52c0.21-0.44,0.5-0.78,0.88-1.03c0.38-0.25,0.82-0.37,1.33-0.37s0.95,0.12,1.31,0.35
				c0.37,0.23,0.65,0.56,0.85,0.99s0.29,0.91,0.29,1.47v0.34h-4.5v-0.73h4.04l-0.47,0.68v-0.36c0-0.43-0.07-0.79-0.2-1.07
				s-0.31-0.49-0.54-0.63c-0.23-0.14-0.49-0.21-0.79-0.21c-0.3,0-0.56,0.07-0.8,0.22c-0.24,0.14-0.42,0.36-0.56,0.64
				c-0.14,0.28-0.2,0.63-0.2,1.05v0.36c0,0.39,0.07,0.73,0.2,1.01c0.13,0.28,0.33,0.49,0.57,0.64c0.25,0.15,0.54,0.22,0.88,0.22
				c0.24,0,0.45-0.04,0.63-0.11c0.19-0.07,0.34-0.17,0.47-0.3s0.21-0.27,0.27-0.43l0.02-0.05h0.92l-0.01,0.05
				c-0.05,0.23-0.13,0.44-0.27,0.64s-0.3,0.38-0.5,0.53c-0.21,0.15-0.44,0.27-0.7,0.35c-0.26,0.08-0.54,0.13-0.85,0.13
				C396.86,138.16,396.41,138.05,396.02,137.81z"/>
			<path class="st17" d="M400.24,132.47h0.98l1.54,4.59h0.02l1.55-4.59h0.97l-2.05,5.59h-0.96L400.24,132.47z"/>
			<path class="st17" d="M406.02,132.47h0.93v0.95h0.02c0.09-0.32,0.25-0.58,0.48-0.77c0.23-0.19,0.5-0.28,0.82-0.28
				c0.08,0,0.16,0,0.22,0.01c0.07,0.01,0.12,0.02,0.15,0.02v0.91c-0.04-0.01-0.1-0.03-0.19-0.04c-0.09-0.01-0.19-0.02-0.31-0.02
				c-0.24,0-0.45,0.05-0.63,0.16s-0.32,0.26-0.42,0.46c-0.1,0.2-0.15,0.44-0.15,0.73v3.45h-0.93V132.47z"/>
			<path class="st17" d="M410.36,137.81c-0.39-0.24-0.69-0.57-0.91-1.01c-0.22-0.44-0.33-0.95-0.33-1.54v-0.01
				c0-0.59,0.11-1.11,0.33-1.54c0.22-0.43,0.52-0.76,0.91-1c0.39-0.23,0.84-0.35,1.35-0.35c0.52,0,0.97,0.12,1.36,0.35
				c0.39,0.23,0.69,0.57,0.91,1c0.22,0.43,0.33,0.94,0.33,1.54v0.01c0,0.59-0.11,1.11-0.33,1.54s-0.52,0.77-0.91,1
				s-0.84,0.35-1.35,0.35S410.75,138.05,410.36,137.81z M412.58,137.09c0.24-0.16,0.43-0.4,0.56-0.71c0.13-0.31,0.2-0.68,0.2-1.12
				v-0.01c0-0.44-0.07-0.81-0.2-1.12c-0.13-0.31-0.32-0.54-0.57-0.7s-0.53-0.24-0.86-0.24c-0.32,0-0.61,0.08-0.85,0.24
				c-0.25,0.16-0.44,0.4-0.57,0.7c-0.14,0.31-0.2,0.68-0.2,1.11v0.01c0,0.44,0.07,0.81,0.2,1.12c0.14,0.31,0.33,0.55,0.57,0.71
				c0.25,0.16,0.53,0.24,0.86,0.24C412.05,137.34,412.34,137.26,412.58,137.09z"/>
			<path class="st17" d="M415.28,130.31h0.93v7.75h-0.93V130.31z"/>
			<path class="st17" d="M418.38,137.81c-0.38-0.24-0.68-0.57-0.89-1c-0.21-0.43-0.31-0.94-0.31-1.52v-0.01
				c0-0.58,0.1-1.08,0.31-1.52c0.21-0.44,0.5-0.78,0.88-1.03c0.38-0.25,0.82-0.37,1.33-0.37s0.95,0.12,1.31,0.35
				c0.37,0.23,0.65,0.56,0.85,0.99s0.29,0.91,0.29,1.47v0.34h-4.5v-0.73h4.04l-0.47,0.68v-0.36c0-0.43-0.07-0.79-0.2-1.07
				s-0.31-0.49-0.54-0.63c-0.23-0.14-0.49-0.21-0.79-0.21c-0.3,0-0.56,0.07-0.8,0.22c-0.24,0.14-0.42,0.36-0.56,0.64
				c-0.14,0.28-0.2,0.63-0.2,1.05v0.36c0,0.39,0.07,0.73,0.2,1.01c0.13,0.28,0.33,0.49,0.57,0.64c0.25,0.15,0.54,0.22,0.88,0.22
				c0.24,0,0.45-0.04,0.63-0.11c0.19-0.07,0.34-0.17,0.47-0.3s0.21-0.27,0.27-0.43l0.02-0.05h0.92l-0.01,0.05
				c-0.05,0.23-0.13,0.44-0.27,0.64s-0.3,0.38-0.5,0.53c-0.21,0.15-0.44,0.27-0.7,0.35c-0.26,0.08-0.54,0.13-0.85,0.13
				C419.23,138.16,418.77,138.05,418.38,137.81z"/>
			<path class="st17" d="M423.75,137.8c-0.25-0.24-0.38-0.63-0.38-1.17v-3.39h-0.82v-0.77h0.82v-1.51h0.97v1.51h1.06v0.77h-1.06
				v3.38c0,0.3,0.06,0.5,0.19,0.6c0.13,0.11,0.32,0.16,0.57,0.16c0.06,0,0.11,0,0.16-0.01c0.05-0.01,0.1-0.01,0.14-0.01v0.76
				c-0.06,0.01-0.13,0.02-0.22,0.02c-0.09,0.01-0.18,0.01-0.28,0.01C424.39,138.16,424.01,138.04,423.75,137.8z"/>
		</g>
	</g>
	<g>
		<g>
			<path class="st18" d="M381.17,146.93h1.01l2.31,6.59h0.02l2.31-6.59h1.01l-2.86,7.75h-0.96L381.17,146.93z"/>
			<path class="st18" d="M389.53,154.43c-0.39-0.24-0.69-0.57-0.91-1.01c-0.22-0.44-0.33-0.95-0.33-1.54v-0.01
				c0-0.59,0.11-1.11,0.33-1.54s0.52-0.76,0.91-1c0.39-0.23,0.84-0.35,1.35-0.35c0.52,0,0.97,0.12,1.36,0.35
				c0.39,0.23,0.69,0.57,0.91,1s0.33,0.94,0.33,1.54v0.01c0,0.59-0.11,1.11-0.33,1.54c-0.22,0.43-0.52,0.77-0.91,1
				s-0.84,0.35-1.35,0.35S389.92,154.67,389.53,154.43z M391.75,153.71c0.24-0.16,0.43-0.4,0.56-0.71c0.13-0.31,0.2-0.68,0.2-1.12
				v-0.01c0-0.44-0.07-0.81-0.2-1.12c-0.13-0.31-0.32-0.54-0.57-0.7s-0.53-0.24-0.86-0.24c-0.32,0-0.61,0.08-0.85,0.24
				s-0.44,0.4-0.57,0.7c-0.14,0.31-0.2,0.68-0.2,1.11v0.01c0,0.44,0.07,0.81,0.2,1.12c0.14,0.31,0.33,0.55,0.57,0.71
				c0.25,0.16,0.53,0.24,0.86,0.24C391.22,153.96,391.51,153.87,391.75,153.71z"/>
			<path class="st18" d="M394.45,146.93h0.93v7.75h-0.93V146.93z"/>
			<path class="st18" d="M396.71,146.93h0.94v7.75h-0.94V146.93z M397.44,151.56h0.23l2.45-2.47h1.13l-2.65,2.64h-0.07l-1.09,1.04
				V151.56z M398.11,152.01l0.62-0.62l2.59,3.29h-1.08L398.11,152.01z"/>
			<path class="st18" d="M402.81,154.57c-0.32-0.14-0.57-0.33-0.75-0.58c-0.18-0.25-0.3-0.54-0.34-0.88l-0.01-0.05h0.94l0.01,0.05
				c0.06,0.28,0.19,0.5,0.4,0.65c0.21,0.16,0.51,0.23,0.89,0.23c0.25,0,0.47-0.03,0.65-0.1c0.18-0.07,0.32-0.16,0.41-0.29
				c0.1-0.12,0.14-0.27,0.14-0.44v-0.01c0-0.2-0.06-0.36-0.18-0.48c-0.12-0.12-0.34-0.22-0.66-0.3l-0.89-0.21
				c-0.53-0.12-0.92-0.31-1.18-0.57c-0.26-0.25-0.39-0.58-0.39-0.98v0c0-0.32,0.09-0.61,0.26-0.85s0.42-0.44,0.73-0.58
				s0.67-0.21,1.07-0.21c0.41,0,0.76,0.07,1.07,0.22c0.3,0.14,0.54,0.34,0.71,0.59c0.17,0.25,0.27,0.53,0.29,0.84l0.01,0.07h-0.89
				l0-0.04c-0.04-0.27-0.16-0.49-0.36-0.66c-0.2-0.16-0.48-0.25-0.82-0.25c-0.23,0-0.42,0.03-0.59,0.1
				c-0.17,0.07-0.29,0.16-0.38,0.29c-0.09,0.12-0.13,0.27-0.13,0.43v0c0,0.19,0.07,0.35,0.2,0.48c0.14,0.13,0.36,0.24,0.67,0.31
				l0.89,0.21c0.57,0.14,0.96,0.32,1.19,0.56s0.34,0.56,0.34,0.95v0.01c0,0.33-0.09,0.61-0.28,0.86c-0.19,0.25-0.45,0.45-0.77,0.59
				c-0.33,0.14-0.7,0.21-1.11,0.21C403.51,154.78,403.13,154.71,402.81,154.57z"/>
			<path class="st18" d="M406.61,149.09h0.93l1.12,4.54h0.02l1.26-4.54h0.9l1.27,4.54h0.02l1.12-4.54h0.92l-1.56,5.59h-0.95
				l-1.26-4.32h-0.02l-1.26,4.32h-0.95L406.61,149.09z"/>
			<path class="st18" d="M415.59,154.57c-0.28-0.14-0.5-0.34-0.65-0.59c-0.16-0.25-0.23-0.55-0.23-0.89v-0.01
				c0-0.48,0.18-0.86,0.53-1.14c0.35-0.28,0.85-0.45,1.49-0.48l2.07-0.12v0.72l-1.96,0.12c-0.37,0.02-0.66,0.11-0.87,0.27
				c-0.21,0.16-0.31,0.37-0.31,0.63v0.01c0,0.27,0.1,0.48,0.3,0.64c0.2,0.16,0.47,0.24,0.81,0.24c0.29,0,0.56-0.06,0.79-0.18
				c0.23-0.12,0.42-0.29,0.56-0.51s0.21-0.46,0.21-0.73v-1.65c0-0.34-0.11-0.61-0.32-0.8c-0.21-0.2-0.51-0.29-0.91-0.29
				c-0.36,0-0.65,0.08-0.87,0.23c-0.22,0.16-0.36,0.36-0.41,0.61l-0.01,0.05h-0.9l0-0.06c0.03-0.31,0.13-0.59,0.31-0.84
				c0.18-0.25,0.43-0.45,0.75-0.6c0.32-0.15,0.7-0.22,1.13-0.22c0.44,0,0.82,0.08,1.14,0.23c0.32,0.15,0.57,0.36,0.74,0.64
				c0.18,0.27,0.26,0.6,0.26,0.97v3.86h-0.93v-0.91h-0.02c-0.11,0.2-0.25,0.38-0.43,0.54c-0.18,0.15-0.38,0.27-0.6,0.35
				c-0.22,0.08-0.46,0.13-0.71,0.13C416.19,154.78,415.87,154.71,415.59,154.57z"/>
			<path class="st18" d="M421.6,156.47c-0.34-0.13-0.62-0.31-0.83-0.53c-0.21-0.22-0.34-0.47-0.41-0.75l-0.01-0.05h0.94l0.02,0.05
				c0.09,0.2,0.26,0.36,0.52,0.48s0.57,0.17,0.95,0.17c0.49,0,0.87-0.13,1.14-0.38c0.27-0.25,0.4-0.6,0.4-1.03v-0.71h-0.02
				c-0.11,0.21-0.25,0.39-0.43,0.54s-0.38,0.27-0.6,0.35c-0.23,0.08-0.47,0.13-0.74,0.13c-0.47,0-0.88-0.12-1.24-0.36
				s-0.63-0.57-0.83-1c-0.2-0.43-0.3-0.94-0.3-1.52v-0.01c0-0.58,0.1-1.08,0.3-1.51s0.48-0.76,0.84-1c0.36-0.24,0.77-0.35,1.25-0.35
				c0.27,0,0.51,0.04,0.73,0.13c0.22,0.09,0.42,0.21,0.59,0.37c0.17,0.16,0.32,0.34,0.43,0.55h0.02v-0.95h0.93v5.43
				c0,0.43-0.1,0.81-0.3,1.13s-0.49,0.57-0.85,0.75c-0.37,0.18-0.81,0.27-1.31,0.27C422.34,156.66,421.94,156.6,421.6,156.47z
				 M423.57,153.65c0.24-0.17,0.42-0.41,0.56-0.72c0.13-0.31,0.2-0.67,0.2-1.08v-0.01c0-0.41-0.07-0.77-0.2-1.07
				c-0.13-0.3-0.32-0.54-0.56-0.71c-0.24-0.17-0.52-0.25-0.83-0.25c-0.33,0-0.62,0.08-0.86,0.25c-0.24,0.17-0.43,0.4-0.56,0.71
				c-0.13,0.3-0.2,0.66-0.2,1.08v0.01c0,0.42,0.07,0.79,0.2,1.09c0.13,0.31,0.32,0.54,0.56,0.71c0.24,0.17,0.53,0.25,0.86,0.25
				C423.06,153.9,423.33,153.82,423.57,153.65z"/>
			<path class="st18" d="M427.39,154.43c-0.38-0.24-0.68-0.57-0.89-1s-0.31-0.94-0.31-1.52v-0.01c0-0.58,0.1-1.08,0.31-1.52
				s0.5-0.78,0.88-1.03c0.38-0.25,0.82-0.37,1.33-0.37s0.95,0.12,1.31,0.35c0.37,0.23,0.65,0.56,0.85,0.99
				c0.2,0.42,0.29,0.91,0.29,1.47v0.34h-4.5v-0.73h4.04l-0.47,0.68v-0.36c0-0.43-0.07-0.79-0.2-1.07c-0.13-0.28-0.31-0.49-0.54-0.63
				c-0.23-0.14-0.49-0.21-0.79-0.21c-0.3,0-0.56,0.07-0.8,0.22c-0.24,0.14-0.42,0.36-0.56,0.64c-0.14,0.28-0.2,0.63-0.2,1.05v0.36
				c0,0.39,0.07,0.73,0.2,1.01c0.13,0.28,0.33,0.49,0.57,0.64c0.25,0.15,0.54,0.22,0.88,0.22c0.24,0,0.45-0.04,0.63-0.11
				c0.19-0.07,0.34-0.17,0.47-0.3c0.12-0.12,0.21-0.27,0.27-0.43l0.02-0.05h0.92l-0.01,0.05c-0.05,0.23-0.13,0.44-0.27,0.64
				c-0.13,0.2-0.3,0.38-0.5,0.53c-0.21,0.15-0.44,0.27-0.7,0.35c-0.26,0.08-0.54,0.13-0.85,0.13
				C428.23,154.78,427.77,154.67,427.39,154.43z"/>
			<path class="st18" d="M432.09,149.09h0.93v0.8h0.02c0.15-0.26,0.37-0.48,0.66-0.65c0.29-0.17,0.64-0.26,1.06-0.26
				c0.61,0,1.09,0.19,1.43,0.56c0.34,0.37,0.51,0.88,0.51,1.51v3.63h-0.93v-3.46c0-0.46-0.11-0.8-0.32-1.04
				c-0.21-0.24-0.53-0.36-0.96-0.36c-0.29,0-0.55,0.07-0.77,0.2c-0.22,0.13-0.39,0.31-0.51,0.55s-0.18,0.51-0.18,0.83v3.29h-0.93
				V149.09z"/>
		</g>
	</g>
	<g>
		<g>
			<path class="st19" d="M381.79,162.56h4.71v0.87h-3.74v2.66h3.43v0.86h-3.43v3.36h-0.97V162.56z"/>
			<path class="st19" d="M388.4,170.07c-0.39-0.24-0.69-0.57-0.91-1.01c-0.22-0.44-0.33-0.95-0.33-1.54v-0.01
				c0-0.59,0.11-1.11,0.33-1.54s0.52-0.76,0.91-1s0.84-0.35,1.35-0.35c0.52,0,0.97,0.12,1.36,0.35s0.69,0.57,0.91,1
				s0.33,0.94,0.33,1.54v0.01c0,0.59-0.11,1.11-0.33,1.54c-0.22,0.43-0.52,0.77-0.91,1s-0.84,0.35-1.35,0.35
				S388.79,170.3,388.4,170.07z M390.62,169.35c0.24-0.16,0.43-0.4,0.56-0.71c0.13-0.31,0.2-0.68,0.2-1.12v-0.01
				c0-0.44-0.07-0.81-0.2-1.12c-0.13-0.31-0.32-0.54-0.57-0.7s-0.53-0.24-0.86-0.24c-0.32,0-0.61,0.08-0.85,0.24s-0.44,0.4-0.57,0.7
				c-0.14,0.31-0.2,0.68-0.2,1.11v0.01c0,0.44,0.07,0.81,0.2,1.12c0.14,0.31,0.33,0.55,0.57,0.71c0.25,0.16,0.53,0.24,0.86,0.24
				C390.09,169.59,390.37,169.51,390.62,169.35z"/>
			<path class="st19" d="M393.27,164.73h0.93v0.95h0.02c0.09-0.32,0.25-0.58,0.48-0.77c0.23-0.19,0.5-0.28,0.82-0.28
				c0.08,0,0.16,0,0.22,0.01c0.07,0.01,0.12,0.02,0.15,0.02v0.91c-0.04-0.01-0.1-0.03-0.19-0.04c-0.09-0.01-0.19-0.02-0.31-0.02
				c-0.24,0-0.45,0.05-0.63,0.16s-0.32,0.26-0.42,0.46c-0.1,0.2-0.15,0.44-0.15,0.73v3.45h-0.93V164.73z"/>
			<path class="st19" d="M397.5,170.06c-0.36-0.24-0.63-0.57-0.83-1.01c-0.2-0.43-0.3-0.95-0.3-1.53v-0.01c0-0.59,0.1-1.1,0.3-1.53
				c0.2-0.43,0.48-0.77,0.83-1.01c0.35-0.24,0.76-0.36,1.23-0.36c0.39,0,0.75,0.09,1.06,0.28c0.31,0.19,0.55,0.44,0.73,0.76h0.02
				v-3.1h0.93v7.75h-0.93v-0.95h-0.02c-0.18,0.33-0.41,0.58-0.72,0.77c-0.3,0.19-0.65,0.28-1.06,0.28
				C398.27,170.42,397.85,170.3,397.5,170.06z M399.77,169.34c0.24-0.17,0.43-0.41,0.57-0.73s0.21-0.67,0.21-1.09v-0.01
				c0-0.42-0.07-0.78-0.21-1.09c-0.14-0.31-0.33-0.55-0.57-0.72c-0.24-0.17-0.52-0.26-0.83-0.26c-0.33,0-0.61,0.08-0.85,0.25
				c-0.24,0.17-0.42,0.41-0.55,0.71c-0.13,0.31-0.19,0.67-0.19,1.1v0.01c0,0.43,0.06,0.79,0.19,1.11s0.31,0.55,0.55,0.72
				c0.24,0.17,0.53,0.25,0.85,0.25C399.24,169.59,399.52,169.51,399.77,169.34z"/>
		</g>
	</g>
	<g>
		<g>
			<path class="st20" d="M381.79,175.51h0.97v7.75h-0.97V175.51z M382.27,182.41h2.3c0.58,0,1.02-0.12,1.32-0.35
				c0.3-0.23,0.45-0.57,0.45-1.01v-0.01c0-0.3-0.07-0.55-0.21-0.75c-0.14-0.2-0.35-0.35-0.63-0.45c-0.28-0.1-0.62-0.15-1.03-0.15
				h-2.21v-0.83h1.93c0.57,0,1.01-0.11,1.31-0.33c0.3-0.22,0.45-0.54,0.45-0.96v-0.01c0-0.38-0.13-0.68-0.38-0.88
				s-0.62-0.3-1.08-0.3h-2.23v-0.85h2.45c0.44,0,0.83,0.08,1.17,0.24s0.59,0.39,0.78,0.68c0.19,0.29,0.28,0.63,0.28,1.02v0.01
				c0,0.27-0.06,0.52-0.18,0.77c-0.12,0.24-0.29,0.45-0.5,0.62c-0.21,0.17-0.45,0.27-0.72,0.31v0.02c0.37,0.04,0.69,0.15,0.96,0.32
				c0.27,0.17,0.47,0.39,0.62,0.66c0.14,0.27,0.21,0.58,0.21,0.92v0.01c0,0.45-0.1,0.84-0.31,1.17c-0.21,0.32-0.51,0.57-0.9,0.75
				c-0.39,0.17-0.86,0.26-1.41,0.26h-2.44V182.41z"/>
			<path class="st20" d="M388.28,177.68h0.93v0.82h0.02c0.13-0.28,0.32-0.5,0.59-0.67c0.27-0.17,0.58-0.25,0.94-0.25
				c0.25,0,0.48,0.04,0.69,0.13c0.21,0.08,0.38,0.21,0.53,0.37c0.15,0.16,0.26,0.35,0.34,0.58h0.02c0.1-0.23,0.24-0.42,0.42-0.58
				s0.37-0.28,0.6-0.37s0.47-0.13,0.73-0.13c0.37,0,0.69,0.08,0.96,0.23c0.27,0.15,0.48,0.37,0.63,0.64
				c0.15,0.27,0.23,0.6,0.23,0.97v3.86H395v-3.64c0-0.38-0.1-0.68-0.3-0.9s-0.49-0.33-0.86-0.33c-0.25,0-0.46,0.06-0.65,0.17
				c-0.19,0.11-0.34,0.27-0.45,0.47c-0.11,0.2-0.16,0.42-0.16,0.68v3.55h-0.93v-3.74c0-0.34-0.1-0.61-0.31-0.82
				s-0.49-0.31-0.83-0.31c-0.25,0-0.47,0.06-0.66,0.18c-0.19,0.12-0.34,0.28-0.45,0.49s-0.17,0.44-0.17,0.7v3.5h-0.93V177.68z"/>
			<path class="st20" d="M396.65,177.68h0.93l1.12,4.54h0.02l1.26-4.54h0.9l1.27,4.54h0.02l1.12-4.54h0.92l-1.56,5.59h-0.95
				l-1.26-4.32h-0.02l-1.26,4.32h-0.95L396.65,177.68z"/>
		</g>
	</g>
	<g>
		<g>
		</g>
	</g>
	<g>
		<g>
			<path class="st21" d="M381.79,187.12h1.12l2.69,6.53h0.03l2.69-6.53h1.12v7.75h-0.9v-5.99h-0.44l1.05-1.55l-3.12,7.54h-0.82
				l-3.12-7.54l1.05,1.55h-0.44v5.99h-0.9V187.12z"/>
			<path class="st21" d="M391.7,194.62c-0.38-0.24-0.68-0.57-0.89-1s-0.31-0.94-0.31-1.52v-0.01c0-0.58,0.1-1.08,0.31-1.52
				s0.5-0.78,0.88-1.03c0.38-0.25,0.82-0.37,1.33-0.37s0.95,0.12,1.31,0.35s0.65,0.56,0.85,0.99c0.2,0.42,0.29,0.91,0.29,1.47v0.34
				h-4.5v-0.73h4.04l-0.47,0.68v-0.36c0-0.43-0.07-0.79-0.2-1.07c-0.13-0.28-0.31-0.49-0.54-0.63c-0.23-0.14-0.49-0.21-0.79-0.21
				c-0.3,0-0.56,0.07-0.8,0.22c-0.24,0.14-0.42,0.36-0.56,0.64c-0.14,0.28-0.2,0.63-0.2,1.05v0.36c0,0.39,0.07,0.73,0.2,1.01
				c0.13,0.28,0.33,0.49,0.57,0.64c0.25,0.15,0.54,0.22,0.88,0.22c0.24,0,0.45-0.04,0.63-0.11c0.19-0.07,0.34-0.17,0.47-0.3
				c0.12-0.12,0.21-0.27,0.27-0.43l0.02-0.05h0.92l-0.01,0.05c-0.05,0.23-0.13,0.44-0.27,0.64c-0.13,0.2-0.3,0.38-0.5,0.53
				c-0.21,0.15-0.44,0.27-0.7,0.35c-0.26,0.08-0.54,0.13-0.85,0.13C392.54,194.98,392.08,194.86,391.7,194.62z"/>
			<path class="st21" d="M396.4,189.28h0.93v0.95h0.02c0.09-0.32,0.25-0.58,0.48-0.77c0.23-0.19,0.5-0.28,0.82-0.28
				c0.08,0,0.16,0,0.22,0.01c0.07,0.01,0.12,0.02,0.15,0.02v0.91c-0.04-0.01-0.1-0.03-0.19-0.04c-0.09-0.01-0.19-0.02-0.31-0.02
				c-0.24,0-0.45,0.05-0.63,0.16s-0.32,0.26-0.42,0.46c-0.1,0.2-0.15,0.44-0.15,0.73v3.45h-0.93V189.28z"/>
			<path class="st21" d="M400.72,194.62c-0.39-0.24-0.69-0.57-0.9-1.01c-0.21-0.43-0.32-0.95-0.32-1.54v0c0-0.59,0.11-1.1,0.32-1.53
				c0.21-0.43,0.52-0.77,0.9-1s0.84-0.35,1.35-0.35c0.47,0,0.86,0.09,1.2,0.27c0.33,0.18,0.59,0.41,0.79,0.7
				c0.19,0.29,0.31,0.59,0.35,0.91l0.01,0.04h-0.91l-0.01-0.04c-0.07-0.28-0.22-0.52-0.45-0.74c-0.23-0.21-0.55-0.32-0.96-0.32
				c-0.32,0-0.61,0.08-0.85,0.25s-0.43,0.41-0.57,0.72s-0.2,0.68-0.2,1.1v0c0,0.43,0.07,0.8,0.21,1.11
				c0.14,0.31,0.33,0.54,0.57,0.71c0.25,0.16,0.53,0.25,0.85,0.25c0.38,0,0.69-0.1,0.93-0.29s0.4-0.45,0.48-0.76l0.01-0.04h0.92
				l0,0.04c-0.05,0.35-0.18,0.67-0.39,0.96c-0.21,0.29-0.48,0.51-0.81,0.68c-0.33,0.17-0.71,0.25-1.13,0.25
				C401.57,194.98,401.11,194.86,400.72,194.62z"/>
			<path class="st21" d="M406.2,194.62c-0.38-0.24-0.68-0.57-0.89-1s-0.31-0.94-0.31-1.52v-0.01c0-0.58,0.1-1.08,0.31-1.52
				s0.5-0.78,0.88-1.03c0.38-0.25,0.82-0.37,1.33-0.37s0.95,0.12,1.31,0.35s0.65,0.56,0.85,0.99c0.2,0.42,0.29,0.91,0.29,1.47v0.34
				h-4.5v-0.73h4.04l-0.47,0.68v-0.36c0-0.43-0.07-0.79-0.2-1.07c-0.13-0.28-0.31-0.49-0.54-0.63c-0.23-0.14-0.49-0.21-0.79-0.21
				c-0.3,0-0.56,0.07-0.8,0.22c-0.24,0.14-0.42,0.36-0.56,0.64c-0.14,0.28-0.2,0.63-0.2,1.05v0.36c0,0.39,0.07,0.73,0.2,1.01
				c0.13,0.28,0.33,0.49,0.57,0.64c0.25,0.15,0.54,0.22,0.88,0.22c0.24,0,0.45-0.04,0.63-0.11c0.19-0.07,0.34-0.17,0.47-0.3
				c0.12-0.12,0.21-0.27,0.27-0.43l0.02-0.05h0.92l-0.01,0.05c-0.05,0.23-0.13,0.44-0.27,0.64c-0.13,0.2-0.3,0.38-0.5,0.53
				c-0.21,0.15-0.44,0.27-0.7,0.35c-0.26,0.08-0.54,0.13-0.85,0.13C407.04,194.98,406.58,194.86,406.2,194.62z"/>
			<path class="st21" d="M411.75,194.62c-0.36-0.24-0.63-0.57-0.83-1.01c-0.2-0.43-0.3-0.95-0.3-1.53v-0.01c0-0.59,0.1-1.1,0.3-1.53
				c0.2-0.43,0.48-0.77,0.83-1.01c0.35-0.24,0.76-0.36,1.23-0.36c0.39,0,0.75,0.09,1.06,0.28c0.31,0.19,0.55,0.44,0.73,0.76h0.02
				v-3.1h0.93v7.75h-0.93v-0.95h-0.02c-0.18,0.33-0.41,0.58-0.72,0.77c-0.3,0.19-0.65,0.28-1.06,0.28
				C412.52,194.98,412.11,194.86,411.75,194.62z M414.02,193.89c0.24-0.17,0.43-0.41,0.57-0.73s0.21-0.67,0.21-1.09v-0.01
				c0-0.42-0.07-0.78-0.21-1.09c-0.14-0.31-0.33-0.55-0.57-0.72c-0.24-0.17-0.52-0.26-0.83-0.26c-0.33,0-0.61,0.08-0.85,0.25
				c-0.24,0.17-0.42,0.41-0.55,0.71c-0.13,0.31-0.19,0.67-0.19,1.1v0.01c0,0.43,0.06,0.79,0.19,1.11s0.31,0.55,0.55,0.72
				c0.24,0.17,0.53,0.25,0.85,0.25C413.5,194.15,413.78,194.06,414.02,193.89z"/>
			<path class="st21" d="M417.9,194.62c-0.38-0.24-0.68-0.57-0.89-1s-0.31-0.94-0.31-1.52v-0.01c0-0.58,0.1-1.08,0.31-1.52
				s0.5-0.78,0.88-1.03c0.38-0.25,0.82-0.37,1.33-0.37s0.95,0.12,1.31,0.35s0.65,0.56,0.85,0.99c0.2,0.42,0.29,0.91,0.29,1.47v0.34
				h-4.5v-0.73h4.04l-0.47,0.68v-0.36c0-0.43-0.07-0.79-0.2-1.07c-0.13-0.28-0.31-0.49-0.54-0.63c-0.23-0.14-0.49-0.21-0.79-0.21
				c-0.3,0-0.56,0.07-0.8,0.22c-0.24,0.14-0.42,0.36-0.56,0.64c-0.14,0.28-0.2,0.63-0.2,1.05v0.36c0,0.39,0.07,0.73,0.2,1.01
				c0.13,0.28,0.33,0.49,0.57,0.64c0.25,0.15,0.54,0.22,0.88,0.22c0.24,0,0.45-0.04,0.63-0.11c0.19-0.07,0.34-0.17,0.47-0.3
				c0.12-0.12,0.21-0.27,0.27-0.43l0.02-0.05h0.92l-0.01,0.05c-0.05,0.23-0.13,0.44-0.27,0.64c-0.13,0.2-0.3,0.38-0.5,0.53
				c-0.21,0.15-0.44,0.27-0.7,0.35c-0.26,0.08-0.54,0.13-0.85,0.13C418.74,194.98,418.29,194.86,417.9,194.62z"/>
			<path class="st21" d="M423.45,194.77c-0.32-0.14-0.57-0.33-0.75-0.58c-0.18-0.25-0.3-0.54-0.34-0.88l-0.01-0.05h0.94l0.01,0.05
				c0.06,0.28,0.19,0.5,0.4,0.65c0.21,0.16,0.51,0.23,0.89,0.23c0.25,0,0.47-0.03,0.65-0.1c0.18-0.07,0.32-0.16,0.41-0.29
				c0.1-0.12,0.14-0.27,0.14-0.44v-0.01c0-0.2-0.06-0.36-0.18-0.48c-0.12-0.12-0.34-0.22-0.66-0.3l-0.89-0.21
				c-0.53-0.12-0.92-0.31-1.18-0.57c-0.26-0.25-0.39-0.58-0.39-0.98v0c0-0.32,0.09-0.61,0.26-0.85s0.42-0.44,0.73-0.58
				s0.67-0.21,1.07-0.21c0.41,0,0.76,0.07,1.07,0.22c0.3,0.14,0.54,0.34,0.71,0.59c0.17,0.25,0.27,0.53,0.29,0.84l0.01,0.07h-0.89
				l0-0.04c-0.04-0.27-0.16-0.49-0.36-0.66c-0.2-0.16-0.48-0.25-0.82-0.25c-0.23,0-0.42,0.03-0.59,0.1
				c-0.17,0.07-0.29,0.16-0.38,0.29c-0.09,0.12-0.13,0.27-0.13,0.43v0c0,0.19,0.07,0.35,0.2,0.48c0.14,0.13,0.36,0.24,0.67,0.31
				l0.89,0.21c0.57,0.14,0.96,0.32,1.19,0.56s0.34,0.56,0.34,0.95v0.01c0,0.33-0.09,0.61-0.28,0.86c-0.19,0.25-0.45,0.45-0.77,0.59
				c-0.33,0.14-0.7,0.21-1.11,0.21C424.15,194.98,423.77,194.91,423.45,194.77z"/>
			<path class="st21" d="M427.74,191.29h3.44v0.87h-3.44V191.29z"/>
			<path class="st21" d="M432.56,187.12h0.97v7.75h-0.97V187.12z M433.04,194.01h2.3c0.58,0,1.02-0.12,1.32-0.35
				c0.3-0.23,0.45-0.57,0.45-1.01v-0.01c0-0.3-0.07-0.55-0.21-0.75c-0.14-0.2-0.35-0.35-0.63-0.45c-0.28-0.1-0.62-0.15-1.03-0.15
				h-2.21v-0.83h1.93c0.57,0,1.01-0.11,1.31-0.33c0.3-0.22,0.45-0.54,0.45-0.96v-0.01c0-0.38-0.13-0.68-0.38-0.88
				c-0.25-0.2-0.62-0.3-1.08-0.3h-2.23v-0.85h2.45c0.44,0,0.83,0.08,1.17,0.24s0.59,0.39,0.78,0.68c0.19,0.29,0.28,0.63,0.28,1.01
				v0.01c0,0.27-0.06,0.52-0.18,0.77c-0.12,0.24-0.29,0.45-0.5,0.62c-0.21,0.17-0.45,0.27-0.72,0.31v0.02
				c0.37,0.04,0.69,0.15,0.96,0.32c0.27,0.17,0.47,0.39,0.62,0.66s0.21,0.58,0.21,0.92v0.01c0,0.46-0.1,0.84-0.31,1.17
				c-0.21,0.32-0.51,0.57-0.9,0.75s-0.86,0.26-1.41,0.26h-2.44V194.01z"/>
			<path class="st21" d="M439.98,194.62c-0.38-0.24-0.68-0.57-0.89-1s-0.31-0.94-0.31-1.52v-0.01c0-0.58,0.1-1.08,0.31-1.52
				s0.5-0.78,0.88-1.03c0.38-0.25,0.82-0.37,1.33-0.37s0.95,0.12,1.31,0.35s0.65,0.56,0.85,0.99c0.2,0.42,0.29,0.91,0.29,1.47v0.34
				h-4.5v-0.73h4.04l-0.47,0.68v-0.36c0-0.43-0.07-0.79-0.2-1.07c-0.13-0.28-0.31-0.49-0.54-0.63c-0.23-0.14-0.49-0.21-0.79-0.21
				c-0.3,0-0.56,0.07-0.8,0.22c-0.24,0.14-0.42,0.36-0.56,0.64c-0.14,0.28-0.2,0.63-0.2,1.05v0.36c0,0.39,0.07,0.73,0.2,1.01
				c0.13,0.28,0.33,0.49,0.57,0.64c0.25,0.15,0.54,0.22,0.88,0.22c0.24,0,0.45-0.04,0.63-0.11c0.19-0.07,0.34-0.17,0.47-0.3
				c0.12-0.12,0.21-0.27,0.27-0.43l0.02-0.05h0.92l-0.01,0.05c-0.05,0.23-0.13,0.44-0.27,0.64c-0.13,0.2-0.3,0.38-0.5,0.53
				c-0.21,0.15-0.44,0.27-0.7,0.35c-0.26,0.08-0.54,0.13-0.85,0.13C440.82,194.98,440.36,194.86,439.98,194.62z"/>
			<path class="st21" d="M444.68,189.28h0.93v0.79h0.02c0.15-0.26,0.37-0.48,0.66-0.65c0.29-0.17,0.64-0.25,1.06-0.25
				c0.61,0,1.09,0.19,1.43,0.56c0.34,0.37,0.51,0.88,0.51,1.51v3.63h-0.93v-3.46c0-0.46-0.11-0.8-0.32-1.04
				c-0.21-0.24-0.53-0.36-0.96-0.36c-0.29,0-0.55,0.07-0.77,0.2c-0.22,0.13-0.39,0.31-0.51,0.55s-0.18,0.51-0.18,0.83v3.29h-0.93
				V189.28z"/>
			<path class="st21" d="M450.34,194.2l3.09-4.13v-0.02h-3.08v-0.77h4.15v0.68l-3.07,4.11v0.02h3.08v0.77h-4.17V194.2z"/>
		</g>
	</g>
	<g>
		<g>
		</g>
	</g>
</g>
<g id="Layer_3">
	<g>
		<g>
			<path class="st0" d="M229.41,298.47l2.48-2.59c0.32-0.33,0.56-0.61,0.73-0.82c0.17-0.22,0.28-0.41,0.35-0.58
				c0.06-0.17,0.09-0.36,0.09-0.55v-0.01c0-0.24-0.05-0.45-0.17-0.64c-0.11-0.19-0.27-0.33-0.46-0.44c-0.2-0.11-0.43-0.16-0.68-0.16
				c-0.29,0-0.55,0.06-0.79,0.18c-0.23,0.12-0.41,0.29-0.55,0.49c-0.13,0.21-0.2,0.43-0.2,0.69v0.02h-0.85v-0.03
				c0-0.41,0.11-0.77,0.32-1.09c0.21-0.32,0.5-0.57,0.86-0.76c0.36-0.18,0.76-0.28,1.19-0.28c0.43,0,0.81,0.09,1.14,0.26
				s0.59,0.41,0.78,0.7c0.19,0.3,0.29,0.63,0.29,1v0.01c0,0.26-0.05,0.51-0.14,0.75c-0.1,0.24-0.26,0.51-0.5,0.81
				c-0.24,0.3-0.57,0.67-1.01,1.12l-1.93,1.98l0.26-0.54v0.54l-0.26-0.24h3.7v0.78h-4.65V298.47z"/>
			<path class="st0" d="M236.12,298.75c-0.39-0.3-0.68-0.72-0.89-1.26s-0.31-1.19-0.31-1.93v-0.01c0-0.75,0.1-1.39,0.31-1.93
				s0.5-0.96,0.89-1.26c0.38-0.29,0.85-0.44,1.39-0.44c0.54,0,1,0.15,1.39,0.44c0.39,0.29,0.68,0.71,0.89,1.26s0.31,1.19,0.31,1.93
				v0.01c0,0.75-0.1,1.39-0.31,1.93s-0.5,0.96-0.89,1.26c-0.39,0.3-0.85,0.44-1.39,0.44C236.97,299.2,236.51,299.05,236.12,298.75z
				 M238.43,298.08c0.26-0.23,0.45-0.56,0.59-0.99c0.14-0.43,0.2-0.94,0.2-1.53v-0.01c0-0.59-0.07-1.1-0.2-1.53
				c-0.13-0.43-0.33-0.76-0.59-0.99c-0.25-0.23-0.56-0.35-0.92-0.35c-0.36,0-0.66,0.12-0.92,0.35s-0.45,0.56-0.58,0.99
				c-0.13,0.43-0.2,0.94-0.2,1.53v0.01c0,0.59,0.07,1.1,0.2,1.53c0.13,0.43,0.33,0.76,0.58,0.99c0.25,0.23,0.56,0.35,0.92,0.35
				C237.87,298.43,238.18,298.31,238.43,298.08z"/>
			<path class="st0" d="M242.18,298.75c-0.39-0.3-0.68-0.72-0.89-1.26s-0.31-1.19-0.31-1.93v-0.01c0-0.75,0.1-1.39,0.31-1.93
				s0.5-0.96,0.89-1.26c0.38-0.29,0.85-0.44,1.39-0.44c0.54,0,1,0.15,1.39,0.44c0.39,0.29,0.68,0.71,0.89,1.26s0.31,1.19,0.31,1.93
				v0.01c0,0.75-0.1,1.39-0.31,1.93s-0.5,0.96-0.89,1.26c-0.39,0.3-0.85,0.44-1.39,0.44C243.03,299.2,242.56,299.05,242.18,298.75z
				 M244.49,298.08c0.26-0.23,0.45-0.56,0.59-0.99c0.14-0.43,0.2-0.94,0.2-1.53v-0.01c0-0.59-0.07-1.1-0.2-1.53
				c-0.13-0.43-0.33-0.76-0.59-0.99c-0.25-0.23-0.56-0.35-0.92-0.35c-0.36,0-0.66,0.12-0.92,0.35s-0.45,0.56-0.58,0.99
				c-0.13,0.43-0.2,0.94-0.2,1.53v0.01c0,0.59,0.07,1.1,0.2,1.53c0.13,0.43,0.33,0.76,0.58,0.99c0.25,0.23,0.56,0.35,0.92,0.35
				C243.93,298.43,244.23,298.31,244.49,298.08z"/>
			<path class="st0" d="M248.39,298.94c-0.35-0.17-0.63-0.41-0.84-0.71c-0.21-0.3-0.33-0.64-0.37-1.02l0-0.05h0.86l0.01,0.04
				c0.03,0.23,0.11,0.44,0.25,0.63c0.14,0.19,0.32,0.33,0.55,0.44s0.48,0.16,0.76,0.16c0.32,0,0.6-0.07,0.85-0.21
				s0.43-0.33,0.57-0.57c0.14-0.24,0.21-0.52,0.21-0.84v-0.01c0-0.31-0.07-0.58-0.21-0.82c-0.14-0.24-0.33-0.43-0.57-0.56
				c-0.24-0.14-0.52-0.21-0.83-0.21c-0.24,0-0.46,0.04-0.66,0.11c-0.2,0.07-0.38,0.18-0.54,0.32c-0.06,0.06-0.12,0.12-0.18,0.19
				c-0.06,0.07-0.11,0.14-0.15,0.22h-0.78l0.36-4.02h4.03v0.78h-3.31l-0.24,2.37h0.02c0.17-0.24,0.39-0.42,0.67-0.54
				c0.28-0.12,0.59-0.19,0.93-0.19c0.45,0,0.85,0.1,1.2,0.3s0.62,0.48,0.83,0.83c0.2,0.35,0.3,0.75,0.3,1.2v0.01
				c0,0.47-0.11,0.88-0.32,1.25s-0.51,0.64-0.89,0.85c-0.38,0.2-0.81,0.3-1.3,0.3C249.14,299.2,248.74,299.11,248.39,298.94z"/>
		</g>
	</g>
	<g>
		<g>
			<path class="st0" d="M180.82,298.47l2.48-2.59c0.32-0.33,0.56-0.61,0.73-0.82c0.17-0.22,0.28-0.41,0.35-0.58
				c0.06-0.17,0.09-0.36,0.09-0.55v-0.01c0-0.24-0.06-0.45-0.17-0.64c-0.11-0.19-0.27-0.33-0.46-0.44c-0.2-0.11-0.42-0.16-0.68-0.16
				c-0.29,0-0.55,0.06-0.79,0.18c-0.23,0.12-0.41,0.29-0.55,0.49s-0.2,0.43-0.2,0.69v0.02h-0.85v-0.03c0-0.41,0.11-0.77,0.32-1.09
				c0.21-0.32,0.5-0.57,0.86-0.76c0.36-0.18,0.76-0.28,1.19-0.28c0.43,0,0.81,0.09,1.14,0.26s0.59,0.41,0.78,0.7
				c0.19,0.3,0.29,0.63,0.29,1v0.01c0,0.26-0.05,0.51-0.14,0.75c-0.1,0.24-0.26,0.51-0.5,0.81c-0.24,0.3-0.57,0.67-1.01,1.12
				l-1.93,1.98l0.26-0.54v0.54l-0.26-0.24h3.7v0.78h-4.65V298.47z"/>
			<path class="st0" d="M187.54,298.75c-0.39-0.3-0.68-0.72-0.89-1.26s-0.31-1.19-0.31-1.93v-0.01c0-0.75,0.1-1.39,0.31-1.93
				s0.5-0.96,0.89-1.26c0.38-0.29,0.85-0.44,1.39-0.44s1,0.15,1.39,0.44c0.39,0.29,0.68,0.71,0.89,1.26
				c0.21,0.54,0.31,1.19,0.31,1.93v0.01c0,0.75-0.1,1.39-0.31,1.93c-0.21,0.54-0.5,0.96-0.89,1.26s-0.85,0.44-1.39,0.44
				S187.92,299.05,187.54,298.75z M189.85,298.08c0.26-0.23,0.45-0.56,0.59-0.99c0.14-0.43,0.2-0.94,0.2-1.53v-0.01
				c0-0.59-0.07-1.1-0.2-1.53c-0.13-0.43-0.33-0.76-0.59-0.99c-0.25-0.23-0.56-0.35-0.92-0.35s-0.66,0.12-0.92,0.35
				s-0.45,0.56-0.58,0.99c-0.13,0.43-0.2,0.94-0.2,1.53v0.01c0,0.59,0.07,1.1,0.2,1.53s0.33,0.76,0.58,0.99
				c0.25,0.23,0.56,0.35,0.92,0.35S189.59,298.31,189.85,298.08z"/>
			<path class="st0" d="M193.59,298.75c-0.39-0.3-0.68-0.72-0.89-1.26s-0.31-1.19-0.31-1.93v-0.01c0-0.75,0.1-1.39,0.31-1.93
				s0.5-0.96,0.89-1.26c0.38-0.29,0.85-0.44,1.39-0.44s1,0.15,1.39,0.44c0.39,0.29,0.68,0.71,0.89,1.26
				c0.21,0.54,0.31,1.19,0.31,1.93v0.01c0,0.75-0.1,1.39-0.31,1.93c-0.21,0.54-0.5,0.96-0.89,1.26s-0.85,0.44-1.39,0.44
				S193.98,299.05,193.59,298.75z M195.9,298.08c0.26-0.23,0.45-0.56,0.59-0.99c0.14-0.43,0.2-0.94,0.2-1.53v-0.01
				c0-0.59-0.07-1.1-0.2-1.53c-0.13-0.43-0.33-0.76-0.59-0.99c-0.25-0.23-0.56-0.35-0.92-0.35s-0.66,0.12-0.92,0.35
				s-0.45,0.56-0.58,0.99c-0.13,0.43-0.2,0.94-0.2,1.53v0.01c0,0.59,0.07,1.1,0.2,1.53s0.33,0.76,0.58,0.99
				c0.25,0.23,0.56,0.35,0.92,0.35S195.65,298.31,195.9,298.08z"/>
			<path class="st0" d="M199.65,298.75c-0.39-0.3-0.68-0.72-0.89-1.26s-0.31-1.19-0.31-1.93v-0.01c0-0.75,0.1-1.39,0.31-1.93
				s0.5-0.96,0.89-1.26c0.38-0.29,0.85-0.44,1.39-0.44s1,0.15,1.39,0.44c0.39,0.29,0.68,0.71,0.89,1.26
				c0.21,0.54,0.31,1.19,0.31,1.93v0.01c0,0.75-0.1,1.39-0.31,1.93c-0.21,0.54-0.5,0.96-0.89,1.26s-0.85,0.44-1.39,0.44
				S200.03,299.05,199.65,298.75z M201.95,298.08c0.26-0.23,0.45-0.56,0.59-0.99c0.14-0.43,0.2-0.94,0.2-1.53v-0.01
				c0-0.59-0.07-1.1-0.2-1.53c-0.13-0.43-0.33-0.76-0.59-0.99c-0.25-0.23-0.56-0.35-0.92-0.35s-0.66,0.12-0.92,0.35
				s-0.45,0.56-0.58,0.99c-0.13,0.43-0.2,0.94-0.2,1.53v0.01c0,0.59,0.07,1.1,0.2,1.53s0.33,0.76,0.58,0.99
				c0.25,0.23,0.56,0.35,0.92,0.35S201.7,298.31,201.95,298.08z"/>
		</g>
	</g>
	<g>
		<g>
			<path class="st0" d="M135.82,292.97h-0.02l-1.87,1.3v-0.88l1.88-1.35h0.86v7.05h-0.85V292.97z"/>
			<path class="st0" d="M141.89,292.1c0.32,0.12,0.6,0.32,0.86,0.59c0.26,0.27,0.47,0.63,0.62,1.08c0.15,0.45,0.23,1,0.23,1.65v0.01
				c0,0.79-0.11,1.47-0.33,2.03c-0.22,0.56-0.53,0.99-0.93,1.29s-0.9,0.44-1.47,0.44c-0.4,0-0.76-0.07-1.08-0.21
				s-0.59-0.34-0.81-0.6c-0.21-0.26-0.36-0.55-0.44-0.9l-0.01-0.06h0.89l0.02,0.05c0.07,0.19,0.17,0.36,0.31,0.5
				c0.13,0.14,0.29,0.25,0.48,0.33c0.19,0.08,0.41,0.11,0.65,0.11c0.44,0,0.79-0.13,1.06-0.38c0.27-0.25,0.47-0.59,0.6-1.01
				c0.13-0.42,0.2-0.87,0.21-1.36c0-0.03,0-0.06,0-0.09c0-0.03,0-0.06,0-0.1l-0.21-1.16c0-0.3-0.07-0.58-0.21-0.82
				c-0.14-0.24-0.33-0.44-0.58-0.58c-0.24-0.15-0.51-0.22-0.82-0.22c-0.3,0-0.57,0.07-0.82,0.21c-0.24,0.14-0.44,0.33-0.58,0.57
				s-0.21,0.51-0.21,0.81v0.01c0,0.31,0.07,0.58,0.21,0.82s0.33,0.42,0.57,0.56c0.24,0.14,0.52,0.2,0.83,0.2s0.59-0.07,0.83-0.2
				s0.44-0.32,0.58-0.55c0.14-0.23,0.21-0.5,0.21-0.8v0h0.29v1.2h-0.1c-0.09,0.21-0.23,0.4-0.42,0.57
				c-0.19,0.17-0.41,0.31-0.67,0.41c-0.26,0.1-0.55,0.15-0.87,0.15c-0.45,0-0.85-0.1-1.2-0.3c-0.35-0.2-0.63-0.48-0.84-0.83
				c-0.2-0.35-0.3-0.75-0.3-1.2v-0.01c0-0.46,0.11-0.87,0.32-1.23c0.22-0.36,0.51-0.64,0.89-0.85c0.37-0.21,0.8-0.31,1.28-0.31
				C141.25,291.92,141.57,291.98,141.89,292.1z"/>
			<path class="st0" d="M148.05,292.1c0.32,0.12,0.6,0.32,0.86,0.59c0.26,0.27,0.47,0.63,0.62,1.08c0.15,0.45,0.23,1,0.23,1.65v0.01
				c0,0.79-0.11,1.47-0.33,2.03c-0.22,0.56-0.53,0.99-0.93,1.29s-0.9,0.44-1.47,0.44c-0.4,0-0.76-0.07-1.08-0.21
				s-0.59-0.34-0.81-0.6c-0.21-0.26-0.36-0.55-0.44-0.9l-0.01-0.06h0.89l0.02,0.05c0.07,0.19,0.17,0.36,0.31,0.5
				c0.13,0.14,0.29,0.25,0.48,0.33c0.19,0.08,0.41,0.11,0.65,0.11c0.44,0,0.79-0.13,1.06-0.38c0.27-0.25,0.47-0.59,0.6-1.01
				c0.13-0.42,0.2-0.87,0.21-1.36c0-0.03,0-0.06,0-0.09c0-0.03,0-0.06,0-0.1l-0.21-1.16c0-0.3-0.07-0.58-0.21-0.82
				c-0.14-0.24-0.33-0.44-0.58-0.58c-0.24-0.15-0.51-0.22-0.82-0.22c-0.3,0-0.57,0.07-0.82,0.21c-0.24,0.14-0.44,0.33-0.58,0.57
				s-0.21,0.51-0.21,0.81v0.01c0,0.31,0.07,0.58,0.21,0.82s0.33,0.42,0.57,0.56c0.24,0.14,0.52,0.2,0.83,0.2s0.59-0.07,0.83-0.2
				s0.44-0.32,0.58-0.55c0.14-0.23,0.21-0.5,0.21-0.8v0H149v1.2h-0.1c-0.09,0.21-0.23,0.4-0.42,0.57c-0.19,0.17-0.41,0.31-0.67,0.41
				c-0.26,0.1-0.55,0.15-0.87,0.15c-0.45,0-0.85-0.1-1.2-0.3c-0.35-0.2-0.63-0.48-0.84-0.83c-0.2-0.35-0.3-0.75-0.3-1.2v-0.01
				c0-0.46,0.11-0.87,0.32-1.23c0.22-0.36,0.51-0.64,0.89-0.85c0.37-0.21,0.8-0.31,1.28-0.31
				C147.41,291.92,147.74,291.98,148.05,292.1z"/>
			<path class="st0" d="M151.99,298.94c-0.35-0.17-0.63-0.41-0.84-0.71s-0.33-0.64-0.37-1.02l0-0.05h0.86l0,0.04
				c0.03,0.23,0.11,0.44,0.25,0.63c0.14,0.19,0.32,0.33,0.55,0.44s0.48,0.16,0.76,0.16c0.32,0,0.6-0.07,0.84-0.21
				s0.43-0.33,0.57-0.57c0.14-0.24,0.21-0.52,0.21-0.84v-0.01c0-0.31-0.07-0.58-0.21-0.82c-0.14-0.24-0.33-0.43-0.57-0.56
				s-0.52-0.21-0.83-0.21c-0.24,0-0.46,0.04-0.66,0.11c-0.2,0.07-0.38,0.18-0.54,0.32c-0.06,0.06-0.12,0.12-0.18,0.19
				c-0.06,0.07-0.11,0.14-0.15,0.22h-0.78l0.36-4.02h4.03v0.78h-3.31l-0.24,2.37h0.02c0.17-0.24,0.39-0.42,0.67-0.54
				s0.59-0.19,0.93-0.19c0.45,0,0.85,0.1,1.2,0.3c0.35,0.2,0.62,0.48,0.83,0.83c0.2,0.35,0.3,0.75,0.3,1.2v0.01
				c0,0.47-0.11,0.88-0.32,1.25s-0.51,0.64-0.89,0.85c-0.38,0.2-0.81,0.3-1.3,0.3C152.74,299.2,152.34,299.11,151.99,298.94z"/>
		</g>
	</g>
	<g>
		<g>
			<path class="st0" d="M88.53,292.97h-0.02l-1.87,1.3v-0.88l1.88-1.35h0.86v7.05h-0.85V292.97z"/>
			<path class="st0" d="M94.6,292.1c0.32,0.12,0.6,0.32,0.86,0.59c0.26,0.27,0.47,0.63,0.62,1.08c0.15,0.45,0.23,1,0.23,1.65v0.01
				c0,0.79-0.11,1.47-0.33,2.03c-0.22,0.56-0.53,0.99-0.93,1.29s-0.9,0.44-1.47,0.44c-0.4,0-0.76-0.07-1.08-0.21
				s-0.59-0.34-0.81-0.6c-0.21-0.26-0.36-0.55-0.44-0.9l-0.01-0.06h0.89l0.02,0.05c0.07,0.19,0.17,0.36,0.31,0.5
				c0.13,0.14,0.29,0.25,0.48,0.33c0.19,0.08,0.41,0.11,0.65,0.11c0.44,0,0.79-0.13,1.06-0.38c0.27-0.25,0.47-0.59,0.6-1.01
				c0.13-0.42,0.2-0.87,0.21-1.36c0-0.03,0-0.06,0-0.09c0-0.03,0-0.06,0-0.1l-0.21-1.16c0-0.3-0.07-0.58-0.21-0.82
				c-0.14-0.24-0.33-0.44-0.58-0.58c-0.24-0.15-0.51-0.22-0.82-0.22c-0.3,0-0.57,0.07-0.82,0.21c-0.24,0.14-0.44,0.33-0.58,0.57
				s-0.21,0.51-0.21,0.81v0.01c0,0.31,0.07,0.58,0.21,0.82s0.33,0.42,0.57,0.56c0.24,0.14,0.52,0.2,0.83,0.2s0.59-0.07,0.83-0.2
				s0.44-0.32,0.58-0.55c0.14-0.23,0.21-0.5,0.21-0.8v0h0.29v1.2h-0.1c-0.09,0.21-0.23,0.4-0.42,0.57
				c-0.19,0.17-0.41,0.31-0.67,0.41c-0.26,0.1-0.55,0.15-0.87,0.15c-0.45,0-0.85-0.1-1.2-0.3c-0.35-0.2-0.63-0.48-0.84-0.83
				c-0.2-0.35-0.3-0.75-0.3-1.2v-0.01c0-0.46,0.11-0.87,0.32-1.23c0.22-0.36,0.51-0.64,0.89-0.85c0.37-0.21,0.8-0.31,1.28-0.31
				C93.96,291.92,94.28,291.98,94.6,292.1z"/>
			<path class="st0" d="M100.76,292.1c0.32,0.12,0.6,0.32,0.86,0.59c0.26,0.27,0.47,0.63,0.62,1.08c0.15,0.45,0.23,1,0.23,1.65v0.01
				c0,0.79-0.11,1.47-0.33,2.03c-0.22,0.56-0.53,0.99-0.93,1.29s-0.9,0.44-1.47,0.44c-0.4,0-0.76-0.07-1.08-0.21
				s-0.59-0.34-0.81-0.6c-0.21-0.26-0.36-0.55-0.44-0.9l-0.01-0.06h0.89l0.02,0.05c0.07,0.19,0.17,0.36,0.31,0.5
				c0.13,0.14,0.29,0.25,0.48,0.33c0.19,0.08,0.41,0.11,0.65,0.11c0.44,0,0.79-0.13,1.06-0.38c0.27-0.25,0.47-0.59,0.6-1.01
				c0.13-0.42,0.2-0.87,0.21-1.36c0-0.03,0-0.06,0-0.09c0-0.03,0-0.06,0-0.1l-0.21-1.16c0-0.3-0.07-0.58-0.21-0.82
				c-0.14-0.24-0.33-0.44-0.58-0.58c-0.24-0.15-0.51-0.22-0.82-0.22c-0.3,0-0.57,0.07-0.82,0.21c-0.24,0.14-0.44,0.33-0.58,0.57
				s-0.21,0.51-0.21,0.81v0.01c0,0.31,0.07,0.58,0.21,0.82s0.33,0.42,0.57,0.56c0.24,0.14,0.52,0.2,0.83,0.2s0.59-0.07,0.83-0.2
				s0.44-0.32,0.58-0.55c0.14-0.23,0.21-0.5,0.21-0.8v0h0.29v1.2h-0.1c-0.09,0.21-0.23,0.4-0.42,0.57
				c-0.19,0.17-0.41,0.31-0.67,0.41c-0.26,0.1-0.55,0.15-0.87,0.15c-0.45,0-0.85-0.1-1.2-0.3c-0.35-0.2-0.63-0.48-0.84-0.83
				c-0.2-0.35-0.3-0.75-0.3-1.2v-0.01c0-0.46,0.11-0.87,0.32-1.23c0.22-0.36,0.51-0.64,0.89-0.85c0.37-0.21,0.8-0.31,1.28-0.31
				C100.13,291.92,100.45,291.98,100.76,292.1z"/>
			<path class="st0" d="M104.55,298.75c-0.39-0.3-0.68-0.72-0.89-1.26s-0.31-1.19-0.31-1.93v-0.01c0-0.75,0.1-1.39,0.31-1.93
				s0.5-0.96,0.89-1.26c0.38-0.29,0.85-0.44,1.39-0.44s1,0.15,1.39,0.44c0.39,0.29,0.68,0.71,0.89,1.26
				c0.21,0.54,0.31,1.19,0.31,1.93v0.01c0,0.75-0.1,1.39-0.31,1.93c-0.21,0.54-0.5,0.96-0.89,1.26s-0.85,0.44-1.39,0.44
				S104.93,299.05,104.55,298.75z M106.86,298.08c0.26-0.23,0.45-0.56,0.59-0.99c0.14-0.43,0.2-0.94,0.2-1.53v-0.01
				c0-0.59-0.07-1.1-0.2-1.53c-0.13-0.43-0.33-0.76-0.59-0.99c-0.25-0.23-0.56-0.35-0.92-0.35s-0.66,0.12-0.92,0.35
				s-0.45,0.56-0.58,0.99c-0.13,0.43-0.2,0.94-0.2,1.53v0.01c0,0.59,0.07,1.1,0.2,1.53s0.33,0.76,0.58,0.99
				c0.25,0.23,0.56,0.35,0.92,0.35S106.6,298.31,106.86,298.08z"/>
		</g>
	</g>
	<g>
		<g>
			<path class="st0" d="M41.25,292.97h-0.02l-1.87,1.3v-0.88l1.88-1.35h0.86v7.05h-0.85V292.97z"/>
			<path class="st0" d="M47.31,292.1c0.32,0.12,0.6,0.32,0.86,0.59c0.26,0.27,0.47,0.63,0.62,1.08c0.15,0.45,0.23,1,0.23,1.65v0.01
				c0,0.79-0.11,1.47-0.33,2.03c-0.22,0.56-0.53,0.99-0.93,1.29c-0.41,0.3-0.9,0.45-1.47,0.45c-0.4,0-0.76-0.07-1.08-0.21
				c-0.32-0.14-0.59-0.34-0.81-0.6c-0.21-0.26-0.36-0.55-0.44-0.9l-0.01-0.06h0.89l0.02,0.05c0.07,0.19,0.17,0.36,0.31,0.5
				c0.13,0.14,0.29,0.25,0.48,0.33c0.19,0.08,0.41,0.11,0.65,0.11c0.44,0,0.79-0.13,1.06-0.38c0.27-0.25,0.47-0.59,0.6-1.01
				c0.13-0.42,0.2-0.87,0.21-1.37c0-0.03,0-0.06,0-0.09c0-0.03,0-0.06,0-0.1l-0.21-1.16c0-0.3-0.07-0.58-0.21-0.82
				c-0.14-0.24-0.33-0.44-0.58-0.58c-0.24-0.15-0.51-0.22-0.82-0.22c-0.3,0-0.57,0.07-0.82,0.21c-0.24,0.14-0.44,0.33-0.58,0.57
				c-0.14,0.24-0.21,0.51-0.21,0.8v0.01c0,0.31,0.07,0.58,0.21,0.82c0.14,0.24,0.33,0.42,0.57,0.56s0.52,0.2,0.83,0.2
				s0.59-0.07,0.83-0.2c0.24-0.13,0.44-0.32,0.58-0.55c0.14-0.23,0.21-0.5,0.21-0.8v-0.01h0.29v1.2h-0.1
				c-0.09,0.21-0.23,0.4-0.42,0.57c-0.19,0.17-0.41,0.31-0.67,0.41c-0.26,0.1-0.55,0.15-0.87,0.15c-0.45,0-0.85-0.1-1.2-0.3
				c-0.35-0.2-0.63-0.48-0.84-0.83c-0.2-0.35-0.3-0.75-0.3-1.2v-0.01c0-0.46,0.11-0.87,0.32-1.23c0.22-0.36,0.51-0.64,0.89-0.85
				s0.8-0.31,1.28-0.31C46.68,291.92,47,291.98,47.31,292.1z"/>
			<path class="st0" d="M51.14,298.94c-0.38-0.17-0.69-0.41-0.91-0.71c-0.22-0.3-0.33-0.65-0.33-1.05v-0.01
				c0-0.29,0.06-0.56,0.19-0.81c0.13-0.25,0.3-0.46,0.53-0.63c0.23-0.18,0.49-0.3,0.79-0.37v-0.02c-0.38-0.12-0.69-0.32-0.92-0.6
				c-0.23-0.28-0.34-0.6-0.34-0.97v-0.01c0-0.36,0.1-0.67,0.3-0.95c0.2-0.28,0.47-0.5,0.82-0.66c0.35-0.16,0.74-0.24,1.19-0.24
				c0.45,0,0.84,0.08,1.19,0.24c0.35,0.16,0.62,0.38,0.82,0.66c0.2,0.28,0.3,0.59,0.3,0.95v0.01c0,0.37-0.11,0.7-0.34,0.97
				c-0.23,0.28-0.53,0.48-0.92,0.6v0.02c0.3,0.07,0.57,0.19,0.79,0.37c0.23,0.17,0.4,0.38,0.53,0.63c0.13,0.25,0.19,0.52,0.19,0.81
				v0.01c0,0.39-0.11,0.74-0.33,1.05s-0.52,0.54-0.91,0.71c-0.39,0.17-0.83,0.26-1.33,0.26S51.52,299.11,51.14,298.94z
				 M53.32,298.26c0.25-0.11,0.45-0.27,0.59-0.46c0.14-0.2,0.21-0.42,0.21-0.68v-0.01c0-0.26-0.07-0.48-0.21-0.68
				c-0.14-0.2-0.34-0.35-0.59-0.47c-0.25-0.11-0.54-0.17-0.86-0.17s-0.61,0.06-0.86,0.17c-0.25,0.12-0.45,0.27-0.59,0.47
				c-0.14,0.2-0.21,0.43-0.21,0.68v0.01c0,0.25,0.07,0.48,0.21,0.68c0.14,0.2,0.34,0.35,0.59,0.46c0.25,0.11,0.54,0.17,0.86,0.17
				C52.79,298.43,53.07,298.37,53.32,298.26z M53.21,294.87c0.21-0.1,0.38-0.24,0.5-0.41s0.18-0.38,0.18-0.61v-0.01
				c0-0.23-0.06-0.43-0.18-0.61s-0.29-0.31-0.5-0.41s-0.46-0.15-0.75-0.15s-0.53,0.05-0.75,0.15s-0.38,0.24-0.5,0.41
				s-0.18,0.38-0.18,0.61v0.01c0,0.23,0.06,0.43,0.18,0.61s0.29,0.31,0.5,0.41c0.21,0.1,0.46,0.15,0.75,0.15
				S52.99,294.97,53.21,294.87z"/>
			<path class="st0" d="M57.24,298.94c-0.35-0.17-0.63-0.41-0.84-0.71c-0.21-0.3-0.33-0.64-0.37-1.02l0-0.05h0.86l0,0.04
				c0.03,0.23,0.11,0.44,0.25,0.63s0.32,0.33,0.55,0.44s0.48,0.16,0.76,0.16c0.32,0,0.6-0.07,0.84-0.21s0.43-0.33,0.57-0.57
				c0.14-0.24,0.21-0.52,0.21-0.84v-0.01c0-0.31-0.07-0.58-0.21-0.82c-0.14-0.24-0.33-0.43-0.57-0.56s-0.52-0.21-0.83-0.21
				c-0.24,0-0.46,0.04-0.66,0.11c-0.2,0.07-0.38,0.18-0.54,0.32c-0.06,0.06-0.12,0.12-0.18,0.19c-0.06,0.07-0.11,0.14-0.15,0.22
				h-0.78l0.36-4.02h4.03v0.78h-3.31L57,295.18h0.02c0.17-0.24,0.39-0.42,0.67-0.54c0.28-0.12,0.59-0.19,0.93-0.19
				c0.45,0,0.85,0.1,1.2,0.3c0.35,0.2,0.62,0.48,0.83,0.83c0.2,0.35,0.3,0.75,0.3,1.2v0.01c0,0.47-0.11,0.88-0.32,1.25
				s-0.51,0.64-0.89,0.85c-0.38,0.2-0.81,0.3-1.3,0.3C57.99,299.2,57.59,299.11,57.24,298.94z"/>
		</g>
	</g>
	<g>
		<g>
			<path class="st0" d="M372.64,298.12l2.48-2.59c0.32-0.33,0.56-0.61,0.73-0.82c0.17-0.22,0.28-0.41,0.35-0.58
				c0.06-0.17,0.09-0.36,0.09-0.55v-0.01c0-0.24-0.06-0.45-0.17-0.64c-0.11-0.19-0.27-0.33-0.46-0.44c-0.2-0.11-0.42-0.16-0.68-0.16
				c-0.29,0-0.55,0.06-0.79,0.18c-0.23,0.12-0.41,0.29-0.55,0.49s-0.2,0.43-0.2,0.69v0.02h-0.85v-0.03c0-0.41,0.11-0.77,0.32-1.09
				c0.21-0.32,0.5-0.57,0.86-0.76c0.36-0.18,0.76-0.28,1.19-0.28c0.43,0,0.81,0.09,1.14,0.26s0.59,0.41,0.78,0.7
				c0.19,0.3,0.29,0.63,0.29,1v0.01c0,0.26-0.05,0.51-0.14,0.75c-0.1,0.24-0.26,0.51-0.5,0.81c-0.24,0.3-0.57,0.67-1.01,1.12
				l-1.93,1.98l0.26-0.54v0.54l-0.26-0.24h3.7v0.78h-4.65V298.12z"/>
			<path class="st0" d="M379.35,298.4c-0.39-0.3-0.68-0.72-0.89-1.26s-0.31-1.19-0.31-1.93v-0.01c0-0.75,0.1-1.39,0.31-1.93
				s0.5-0.96,0.89-1.26c0.38-0.29,0.85-0.44,1.39-0.44s1,0.15,1.39,0.44c0.39,0.29,0.68,0.71,0.89,1.26
				c0.21,0.54,0.31,1.19,0.31,1.93v0.01c0,0.75-0.1,1.39-0.31,1.93c-0.21,0.54-0.5,0.96-0.89,1.26s-0.85,0.44-1.39,0.44
				S379.74,298.7,379.35,298.4z M381.66,297.73c0.26-0.23,0.45-0.56,0.59-0.99c0.14-0.43,0.2-0.94,0.2-1.53v-0.01
				c0-0.59-0.07-1.1-0.2-1.53c-0.13-0.43-0.33-0.76-0.59-0.99c-0.25-0.23-0.56-0.35-0.92-0.35s-0.66,0.12-0.92,0.35
				s-0.45,0.56-0.58,0.99c-0.13,0.43-0.2,0.94-0.2,1.53v0.01c0,0.59,0.07,1.1,0.2,1.53s0.33,0.76,0.58,0.99
				c0.25,0.23,0.56,0.35,0.92,0.35S381.41,297.96,381.66,297.73z"/>
			<path class="st0" d="M384.34,298.12l2.48-2.59c0.32-0.33,0.56-0.61,0.73-0.82c0.17-0.22,0.28-0.41,0.35-0.58
				c0.06-0.17,0.09-0.36,0.09-0.55v-0.01c0-0.24-0.06-0.45-0.17-0.64c-0.11-0.19-0.27-0.33-0.46-0.44c-0.2-0.11-0.42-0.16-0.68-0.16
				c-0.29,0-0.55,0.06-0.79,0.18c-0.23,0.12-0.41,0.29-0.55,0.49s-0.2,0.43-0.2,0.69v0.02h-0.85v-0.03c0-0.41,0.11-0.77,0.32-1.09
				c0.21-0.32,0.5-0.57,0.86-0.76c0.36-0.18,0.76-0.28,1.19-0.28c0.43,0,0.81,0.09,1.14,0.26s0.59,0.41,0.78,0.7
				c0.19,0.3,0.29,0.63,0.29,1v0.01c0,0.26-0.05,0.51-0.14,0.75c-0.1,0.24-0.26,0.51-0.5,0.81c-0.24,0.3-0.57,0.67-1.01,1.12
				l-1.93,1.98l0.26-0.54v0.54l-0.26-0.24h3.7v0.78h-4.65V298.12z"/>
			<path class="st0" d="M391.06,298.4c-0.39-0.3-0.68-0.72-0.89-1.26s-0.31-1.19-0.31-1.93v-0.01c0-0.75,0.1-1.39,0.31-1.93
				s0.5-0.96,0.89-1.26c0.38-0.29,0.85-0.44,1.39-0.44s1,0.15,1.39,0.44c0.39,0.29,0.68,0.71,0.89,1.26
				c0.21,0.54,0.31,1.19,0.31,1.93v0.01c0,0.75-0.1,1.39-0.31,1.93c-0.21,0.54-0.5,0.96-0.89,1.26s-0.85,0.44-1.39,0.44
				S391.44,298.7,391.06,298.4z M393.36,297.73c0.26-0.23,0.45-0.56,0.59-0.99c0.14-0.43,0.2-0.94,0.2-1.53v-0.01
				c0-0.59-0.07-1.1-0.2-1.53c-0.13-0.43-0.33-0.76-0.59-0.99c-0.25-0.23-0.56-0.35-0.92-0.35s-0.66,0.12-0.92,0.35
				s-0.45,0.56-0.58,0.99c-0.13,0.43-0.2,0.94-0.2,1.53v0.01c0,0.59,0.07,1.1,0.2,1.53s0.33,0.76,0.58,0.99
				c0.25,0.23,0.56,0.35,0.92,0.35S393.11,297.96,393.36,297.73z"/>
		</g>
	</g>
	<g>
		<g>
			<path class="st0" d="M277.15,298.36l2.48-2.59c0.32-0.33,0.56-0.61,0.73-0.82c0.17-0.22,0.28-0.41,0.35-0.58
				c0.06-0.17,0.09-0.36,0.09-0.55v-0.01c0-0.24-0.06-0.45-0.17-0.64c-0.11-0.19-0.27-0.33-0.46-0.44c-0.2-0.11-0.42-0.16-0.68-0.16
				c-0.29,0-0.55,0.06-0.79,0.18c-0.23,0.12-0.41,0.29-0.55,0.49s-0.2,0.43-0.2,0.69v0.02h-0.85v-0.03c0-0.41,0.11-0.77,0.32-1.09
				c0.21-0.32,0.5-0.57,0.86-0.76c0.36-0.18,0.76-0.28,1.19-0.28c0.43,0,0.81,0.09,1.14,0.26s0.59,0.41,0.78,0.7
				c0.19,0.3,0.29,0.63,0.29,1v0.01c0,0.26-0.05,0.51-0.14,0.75c-0.1,0.24-0.26,0.51-0.5,0.81c-0.24,0.3-0.57,0.67-1.01,1.12
				l-1.93,1.98l0.26-0.54v0.54l-0.26-0.24h3.7v0.78h-4.65V298.36z"/>
			<path class="st0" d="M283.86,298.63c-0.39-0.3-0.68-0.72-0.89-1.26s-0.31-1.19-0.31-1.93v-0.01c0-0.75,0.1-1.39,0.31-1.93
				s0.5-0.96,0.89-1.26c0.38-0.29,0.85-0.44,1.39-0.44s1,0.15,1.39,0.44c0.39,0.29,0.68,0.71,0.89,1.26
				c0.21,0.54,0.31,1.19,0.31,1.93v0.01c0,0.75-0.1,1.39-0.31,1.93c-0.21,0.54-0.5,0.96-0.89,1.26s-0.85,0.44-1.39,0.44
				S284.25,298.93,283.86,298.63z M286.17,297.96c0.26-0.23,0.45-0.56,0.59-0.99c0.14-0.43,0.2-0.94,0.2-1.53v-0.01
				c0-0.59-0.07-1.1-0.2-1.53c-0.13-0.43-0.33-0.76-0.59-0.99c-0.25-0.23-0.56-0.35-0.92-0.35s-0.66,0.12-0.92,0.35
				s-0.45,0.56-0.58,0.99c-0.13,0.43-0.2,0.94-0.2,1.53v0.01c0,0.59,0.07,1.1,0.2,1.53s0.33,0.76,0.58,0.99
				c0.25,0.23,0.56,0.35,0.92,0.35S285.92,298.2,286.17,297.96z"/>
			<path class="st0" d="M290.65,292.85h-0.02l-1.87,1.3v-0.88l1.88-1.35h0.86v7.05h-0.85V292.85z"/>
			<path class="st0" d="M294.34,298.63c-0.39-0.3-0.68-0.72-0.89-1.26s-0.31-1.19-0.31-1.93v-0.01c0-0.75,0.1-1.39,0.31-1.93
				s0.5-0.96,0.89-1.26c0.38-0.29,0.85-0.44,1.39-0.44s1,0.15,1.39,0.44c0.39,0.29,0.68,0.71,0.89,1.26
				c0.21,0.54,0.31,1.19,0.31,1.93v0.01c0,0.75-0.1,1.39-0.31,1.93c-0.21,0.54-0.5,0.96-0.89,1.26s-0.85,0.44-1.39,0.44
				S294.72,298.93,294.34,298.63z M296.65,297.96c0.26-0.23,0.45-0.56,0.59-0.99c0.14-0.43,0.2-0.94,0.2-1.53v-0.01
				c0-0.59-0.07-1.1-0.2-1.53c-0.13-0.43-0.33-0.76-0.59-0.99c-0.25-0.23-0.56-0.35-0.92-0.35s-0.66,0.12-0.92,0.35
				s-0.45,0.56-0.58,0.99c-0.13,0.43-0.2,0.94-0.2,1.53v0.01c0,0.59,0.07,1.1,0.2,1.53s0.33,0.76,0.58,0.99
				c0.25,0.23,0.56,0.35,0.92,0.35S296.39,298.2,296.65,297.96z"/>
		</g>
	</g>
	<g>
		<g>
			<path class="st0" d="M325.04,298.24l2.48-2.59c0.32-0.33,0.56-0.61,0.73-0.82c0.17-0.22,0.28-0.41,0.35-0.58
				c0.06-0.17,0.09-0.36,0.09-0.55v-0.01c0-0.24-0.06-0.46-0.17-0.64c-0.11-0.19-0.27-0.33-0.46-0.44c-0.2-0.11-0.42-0.16-0.68-0.16
				c-0.29,0-0.55,0.06-0.79,0.18c-0.23,0.12-0.41,0.29-0.55,0.49s-0.2,0.44-0.2,0.69v0.02h-0.85v-0.03c0-0.41,0.11-0.77,0.32-1.09
				c0.21-0.32,0.5-0.57,0.86-0.76c0.36-0.18,0.76-0.28,1.19-0.28c0.43,0,0.81,0.09,1.14,0.26c0.33,0.17,0.59,0.41,0.78,0.7
				c0.19,0.3,0.29,0.63,0.29,1v0.01c0,0.26-0.05,0.51-0.14,0.75c-0.1,0.24-0.26,0.51-0.5,0.81s-0.57,0.67-1.01,1.12l-1.93,1.98
				l0.26-0.54v0.54l-0.26-0.24h3.7v0.78h-4.65V298.24z"/>
			<path class="st0" d="M331.75,298.52c-0.39-0.3-0.68-0.72-0.89-1.26c-0.21-0.54-0.31-1.19-0.31-1.93v-0.01
				c0-0.75,0.1-1.39,0.31-1.93c0.21-0.54,0.5-0.96,0.89-1.26c0.38-0.29,0.85-0.44,1.39-0.44s1,0.15,1.39,0.44s0.68,0.71,0.89,1.26
				c0.21,0.54,0.31,1.19,0.31,1.93v0.01c0,0.74-0.1,1.39-0.31,1.93c-0.21,0.54-0.5,0.96-0.89,1.26c-0.39,0.29-0.85,0.44-1.39,0.44
				S332.14,298.81,331.75,298.52z M334.06,297.85c0.26-0.23,0.45-0.56,0.59-0.99c0.14-0.43,0.2-0.94,0.2-1.53v-0.01
				c0-0.59-0.07-1.1-0.2-1.53c-0.13-0.43-0.33-0.76-0.59-0.99c-0.25-0.23-0.56-0.35-0.92-0.35s-0.66,0.12-0.92,0.35
				c-0.25,0.23-0.45,0.56-0.58,0.99c-0.13,0.43-0.2,0.94-0.2,1.53v0.01c0,0.59,0.07,1.1,0.2,1.53s0.33,0.76,0.58,0.99
				s0.56,0.35,0.92,0.35S333.81,298.08,334.06,297.85z"/>
			<path class="st0" d="M338.54,292.73h-0.02l-1.87,1.3v-0.88l1.88-1.35h0.86v7.04h-0.85V292.73z"/>
			<path class="st0" d="M342.39,298.7c-0.35-0.17-0.63-0.41-0.84-0.71c-0.21-0.3-0.33-0.64-0.37-1.02l0-0.05h0.86l0,0.04
				c0.03,0.23,0.11,0.44,0.25,0.63c0.14,0.19,0.32,0.34,0.55,0.44s0.48,0.16,0.76,0.16c0.32,0,0.6-0.07,0.84-0.21
				s0.43-0.33,0.57-0.57s0.21-0.52,0.21-0.84v-0.01c0-0.31-0.07-0.58-0.21-0.82c-0.14-0.24-0.33-0.43-0.57-0.56
				s-0.52-0.21-0.83-0.21c-0.24,0-0.46,0.04-0.66,0.11c-0.2,0.07-0.38,0.18-0.54,0.32c-0.06,0.06-0.12,0.12-0.18,0.19
				c-0.06,0.07-0.11,0.14-0.15,0.22h-0.78l0.36-4.02h4.03v0.78h-3.31l-0.24,2.37h0.02c0.17-0.24,0.39-0.42,0.67-0.54
				c0.28-0.12,0.59-0.19,0.93-0.19c0.45,0,0.85,0.1,1.2,0.3c0.35,0.2,0.62,0.48,0.83,0.83c0.2,0.35,0.3,0.75,0.3,1.21v0.01
				c0,0.47-0.11,0.88-0.32,1.24s-0.51,0.64-0.89,0.85s-0.81,0.3-1.3,0.3C343.14,298.96,342.74,298.87,342.39,298.7z"/>
		</g>
	</g>
	<g>
		<g>
			<path class="st0" d="M26.98,267.82h-0.02l-1.87,1.3v-0.88l1.88-1.35h0.86v7.05h-0.85V267.82z"/>
			<path class="st0" d="M30.83,273.79c-0.35-0.17-0.63-0.41-0.84-0.71s-0.34-0.64-0.37-1.02l0-0.05h0.86l0,0.04
				c0.03,0.23,0.11,0.44,0.25,0.63c0.14,0.19,0.32,0.33,0.55,0.44s0.48,0.16,0.76,0.16c0.32,0,0.6-0.07,0.84-0.21
				s0.43-0.33,0.57-0.57c0.14-0.24,0.21-0.52,0.21-0.84v-0.01c0-0.31-0.07-0.58-0.21-0.82c-0.14-0.24-0.33-0.43-0.57-0.56
				s-0.52-0.21-0.83-0.21c-0.24,0-0.46,0.04-0.66,0.11c-0.2,0.07-0.38,0.18-0.54,0.32c-0.06,0.06-0.12,0.12-0.18,0.19
				s-0.11,0.14-0.15,0.22h-0.78l0.36-4.02h4.03v0.78h-3.31l-0.24,2.37h0.02c0.17-0.24,0.39-0.42,0.67-0.54s0.59-0.19,0.93-0.19
				c0.45,0,0.85,0.1,1.2,0.3s0.62,0.48,0.83,0.83c0.2,0.35,0.3,0.75,0.3,1.2v0.01c0,0.47-0.11,0.88-0.32,1.25s-0.51,0.64-0.89,0.85
				c-0.38,0.2-0.81,0.3-1.3,0.3C31.58,274.05,31.18,273.96,30.83,273.79z"/>
		</g>
	</g>
	<g>
		<g>
			<path class="st0" d="M25.19,218.62l2.48-2.59c0.32-0.33,0.56-0.61,0.73-0.82c0.17-0.22,0.28-0.41,0.35-0.58s0.1-0.36,0.1-0.55
				v-0.01c0-0.24-0.06-0.45-0.17-0.64s-0.27-0.33-0.46-0.44c-0.2-0.11-0.42-0.16-0.68-0.16c-0.29,0-0.56,0.06-0.79,0.18
				c-0.23,0.12-0.41,0.29-0.55,0.49s-0.2,0.43-0.2,0.69v0.02h-0.85v-0.03c0-0.41,0.11-0.77,0.32-1.09c0.21-0.32,0.5-0.57,0.86-0.76
				c0.36-0.18,0.76-0.28,1.19-0.28c0.43,0,0.81,0.09,1.14,0.26s0.59,0.41,0.78,0.7s0.29,0.63,0.29,1v0.01
				c0,0.26-0.05,0.51-0.14,0.75s-0.26,0.51-0.5,0.81c-0.24,0.3-0.57,0.67-1.01,1.12l-1.93,1.98l0.26-0.54v0.54l-0.26-0.24h3.7v0.78
				h-4.65V218.62z"/>
			<path class="st0" d="M31.9,218.9c-0.39-0.3-0.68-0.72-0.89-1.26s-0.31-1.19-0.31-1.93v-0.01c0-0.75,0.1-1.39,0.31-1.93
				s0.5-0.96,0.89-1.26c0.39-0.29,0.85-0.44,1.39-0.44s1,0.15,1.39,0.44c0.39,0.29,0.68,0.71,0.89,1.26s0.31,1.19,0.31,1.93v0.01
				c0,0.75-0.1,1.39-0.31,1.93s-0.5,0.96-0.89,1.26s-0.85,0.44-1.39,0.44S32.29,219.2,31.9,218.9z M34.21,218.23
				c0.26-0.23,0.45-0.56,0.59-0.99s0.2-0.94,0.2-1.53v-0.01c0-0.59-0.07-1.1-0.2-1.53c-0.14-0.43-0.33-0.76-0.59-0.99
				s-0.56-0.35-0.92-0.35s-0.66,0.12-0.92,0.35s-0.45,0.56-0.58,0.99c-0.13,0.43-0.2,0.94-0.2,1.53v0.01c0,0.59,0.07,1.1,0.2,1.53
				s0.33,0.76,0.58,0.99c0.25,0.23,0.56,0.35,0.92,0.35S33.96,218.46,34.21,218.23z"/>
		</g>
	</g>
	<g>
		<g>
			<path class="st0" d="M25.19,163.77l2.48-2.59c0.32-0.33,0.56-0.61,0.73-0.82c0.17-0.22,0.28-0.41,0.35-0.58s0.1-0.36,0.1-0.55
				v-0.01c0-0.24-0.06-0.45-0.17-0.64s-0.27-0.33-0.46-0.44c-0.2-0.11-0.42-0.16-0.68-0.16c-0.29,0-0.56,0.06-0.79,0.18
				c-0.23,0.12-0.41,0.29-0.55,0.49s-0.2,0.43-0.2,0.69v0.02h-0.85v-0.03c0-0.41,0.11-0.77,0.32-1.09c0.21-0.32,0.5-0.57,0.86-0.76
				c0.36-0.18,0.76-0.28,1.19-0.28c0.43,0,0.81,0.09,1.14,0.26s0.59,0.41,0.78,0.7s0.29,0.63,0.29,1v0.01
				c0,0.26-0.05,0.51-0.14,0.75s-0.26,0.51-0.5,0.81c-0.24,0.3-0.57,0.67-1.01,1.12l-1.93,1.98l0.26-0.54v0.54l-0.26-0.24h3.7v0.78
				h-4.65V163.77z"/>
			<path class="st0" d="M32.06,164.23c-0.35-0.17-0.63-0.41-0.84-0.71s-0.34-0.64-0.37-1.02l0-0.05h0.86l0,0.04
				c0.03,0.23,0.11,0.44,0.25,0.63c0.14,0.19,0.32,0.33,0.55,0.44s0.48,0.16,0.76,0.16c0.32,0,0.6-0.07,0.84-0.21
				s0.43-0.33,0.57-0.57c0.14-0.24,0.21-0.52,0.21-0.84v-0.01c0-0.31-0.07-0.58-0.21-0.82c-0.14-0.24-0.33-0.43-0.57-0.56
				s-0.52-0.21-0.83-0.21c-0.24,0-0.46,0.04-0.66,0.11c-0.2,0.07-0.38,0.18-0.54,0.32c-0.06,0.06-0.12,0.12-0.18,0.19
				s-0.11,0.14-0.15,0.22h-0.78l0.36-4.02h4.03v0.78h-3.31l-0.24,2.37h0.02c0.17-0.24,0.39-0.42,0.67-0.54s0.59-0.19,0.93-0.19
				c0.45,0,0.85,0.1,1.2,0.3s0.62,0.48,0.83,0.83c0.2,0.35,0.3,0.75,0.3,1.2v0.01c0,0.47-0.11,0.88-0.32,1.25s-0.51,0.64-0.89,0.85
				c-0.38,0.2-0.81,0.3-1.3,0.3C32.81,164.49,32.41,164.4,32.06,164.23z"/>
		</g>
	</g>
	<g>
		<g>
			<path class="st0" d="M26.29,109.81c-0.36-0.17-0.65-0.39-0.86-0.68s-0.33-0.62-0.36-0.99l0-0.06h0.84l0,0.05
				c0.04,0.34,0.2,0.63,0.5,0.84s0.68,0.33,1.15,0.33c0.31,0,0.58-0.05,0.81-0.16s0.41-0.26,0.54-0.45c0.13-0.19,0.2-0.41,0.2-0.66
				v-0.01c0-0.43-0.14-0.77-0.43-1c-0.29-0.23-0.68-0.35-1.17-0.35h-0.88v-0.74h0.84c0.28,0,0.53-0.05,0.74-0.16
				c0.21-0.11,0.38-0.25,0.5-0.43c0.12-0.18,0.18-0.39,0.18-0.63v-0.01c0-0.25-0.05-0.46-0.16-0.63s-0.26-0.3-0.46-0.4
				s-0.44-0.14-0.73-0.14c-0.28,0-0.52,0.05-0.74,0.14c-0.22,0.09-0.39,0.22-0.52,0.4s-0.21,0.38-0.23,0.62l0,0.05H25.2l0-0.05
				c0.04-0.38,0.16-0.72,0.36-1.01s0.47-0.51,0.81-0.67s0.73-0.24,1.16-0.24c0.45,0,0.84,0.08,1.17,0.23
				c0.33,0.16,0.59,0.37,0.78,0.64c0.18,0.27,0.28,0.59,0.28,0.94v0.01c0,0.29-0.06,0.55-0.19,0.77s-0.3,0.41-0.53,0.56
				s-0.48,0.26-0.78,0.32v0.02c0.51,0.04,0.93,0.22,1.25,0.52C29.85,107.1,30,107.5,30,108v0.01c0,0.39-0.11,0.74-0.32,1.05
				s-0.5,0.55-0.87,0.73c-0.37,0.18-0.79,0.27-1.26,0.27C27.07,110.06,26.65,109.97,26.29,109.81z"/>
			<path class="st0" d="M32.16,109.61c-0.39-0.3-0.68-0.72-0.89-1.26s-0.31-1.19-0.31-1.93v-0.01c0-0.75,0.1-1.39,0.31-1.93
				s0.5-0.96,0.89-1.26c0.39-0.29,0.85-0.44,1.39-0.44s1,0.15,1.39,0.44c0.39,0.29,0.68,0.71,0.89,1.26s0.31,1.19,0.31,1.93v0.01
				c0,0.75-0.1,1.39-0.31,1.93s-0.5,0.96-0.89,1.26s-0.85,0.44-1.39,0.44S32.55,109.91,32.16,109.61z M34.47,108.94
				c0.26-0.23,0.45-0.56,0.59-0.99s0.2-0.94,0.2-1.53v-0.01c0-0.59-0.07-1.1-0.2-1.53c-0.14-0.43-0.33-0.76-0.59-0.99
				s-0.56-0.35-0.92-0.35s-0.66,0.12-0.92,0.35s-0.45,0.56-0.58,0.99c-0.13,0.43-0.2,0.94-0.2,1.53v0.01c0,0.59,0.07,1.1,0.2,1.53
				c0.13,0.43,0.33,0.76,0.58,0.99c0.25,0.23,0.56,0.35,0.92,0.35S34.21,109.17,34.47,108.94z"/>
		</g>
	</g>
	<g>
		<g>
			<path class="st0" d="M26.29,54.38c-0.36-0.17-0.65-0.39-0.86-0.68s-0.33-0.62-0.36-0.99l0-0.06h0.84l0,0.05
				c0.04,0.34,0.2,0.63,0.5,0.84s0.68,0.33,1.15,0.33c0.31,0,0.58-0.05,0.81-0.16s0.41-0.26,0.54-0.45c0.13-0.19,0.2-0.41,0.2-0.66
				v-0.01c0-0.43-0.14-0.77-0.43-1c-0.29-0.23-0.68-0.35-1.17-0.35h-0.88V50.5h0.84c0.28,0,0.53-0.05,0.74-0.16
				c0.21-0.11,0.38-0.25,0.5-0.43c0.12-0.18,0.18-0.39,0.18-0.63v-0.01c0-0.25-0.05-0.46-0.16-0.63s-0.26-0.3-0.46-0.4
				s-0.44-0.14-0.73-0.14c-0.28,0-0.52,0.05-0.74,0.14c-0.22,0.09-0.39,0.22-0.52,0.4s-0.21,0.38-0.23,0.62l0,0.05H25.2l0-0.05
				c0.04-0.38,0.16-0.72,0.36-1.01s0.47-0.51,0.81-0.67s0.73-0.24,1.16-0.24c0.45,0,0.84,0.08,1.17,0.23
				c0.33,0.16,0.59,0.37,0.78,0.64c0.18,0.27,0.28,0.59,0.28,0.94v0.01c0,0.29-0.06,0.55-0.19,0.77s-0.3,0.41-0.53,0.56
				s-0.48,0.26-0.78,0.32v0.02c0.51,0.04,0.93,0.22,1.25,0.52c0.32,0.3,0.48,0.71,0.48,1.21v0.01c0,0.39-0.11,0.74-0.32,1.05
				s-0.5,0.55-0.87,0.73c-0.37,0.18-0.79,0.27-1.26,0.27C27.07,54.63,26.65,54.55,26.29,54.38z"/>
			<path class="st0" d="M32.32,54.37c-0.35-0.17-0.63-0.41-0.84-0.71s-0.34-0.64-0.37-1.02l0-0.05h0.86l0,0.04
				c0.03,0.23,0.11,0.44,0.25,0.63c0.14,0.19,0.32,0.33,0.55,0.44s0.48,0.16,0.76,0.16c0.32,0,0.6-0.07,0.84-0.21
				s0.43-0.33,0.57-0.57c0.14-0.24,0.21-0.52,0.21-0.84v-0.01c0-0.31-0.07-0.58-0.21-0.82c-0.14-0.24-0.33-0.43-0.57-0.56
				s-0.52-0.21-0.83-0.21c-0.24,0-0.46,0.04-0.66,0.11c-0.2,0.07-0.38,0.18-0.54,0.32c-0.06,0.06-0.12,0.12-0.18,0.19
				s-0.11,0.14-0.15,0.22h-0.78l0.36-4.02h4.03v0.78h-3.31l-0.24,2.37h0.02c0.17-0.24,0.39-0.42,0.67-0.54s0.59-0.19,0.93-0.19
				c0.45,0,0.85,0.1,1.2,0.3s0.62,0.48,0.83,0.83c0.2,0.35,0.3,0.75,0.3,1.2v0.01c0,0.47-0.11,0.88-0.32,1.25s-0.51,0.64-0.89,0.85
				c-0.38,0.2-0.81,0.3-1.3,0.3C33.07,54.63,32.67,54.54,32.32,54.37z"/>
		</g>
	</g>
	<g>
		<g>
			<path class="st0" d="M211.61,309.51l-3.25-5.22h1.3l2.5,4.11h0.04l2.5-4.11h1.3l-3.25,5.22v3.94h-1.14V309.51z"/>
			<path class="st0" d="M217.95,313.16c-0.45-0.28-0.8-0.67-1.05-1.18s-0.37-1.11-0.37-1.8v-0.01c0-0.68,0.12-1.28,0.37-1.8
				c0.25-0.52,0.59-0.92,1.04-1.21s0.97-0.43,1.57-0.43c0.6,0,1.12,0.14,1.55,0.42s0.77,0.67,1,1.16c0.23,0.5,0.35,1.08,0.35,1.74
				v0.41h-5.32v-0.86h4.77l-0.56,0.8v-0.42c0-0.51-0.08-0.94-0.23-1.27s-0.37-0.58-0.64-0.75c-0.27-0.16-0.58-0.24-0.93-0.24
				c-0.35,0-0.67,0.09-0.95,0.26c-0.28,0.17-0.5,0.43-0.66,0.76c-0.16,0.34-0.24,0.75-0.24,1.24v0.42c0,0.47,0.08,0.86,0.24,1.19
				c0.16,0.33,0.38,0.58,0.68,0.76s0.64,0.26,1.04,0.26c0.28,0,0.53-0.04,0.75-0.13c0.22-0.08,0.4-0.2,0.55-0.35
				c0.15-0.15,0.25-0.32,0.32-0.51l0.02-0.06h1.09l-0.01,0.06c-0.05,0.27-0.16,0.52-0.31,0.76s-0.35,0.45-0.59,0.62
				c-0.24,0.18-0.52,0.32-0.82,0.42c-0.31,0.1-0.64,0.15-1,0.15C218.95,313.58,218.41,313.44,217.95,313.16z"/>
			<path class="st0" d="M224.29,313.33c-0.33-0.16-0.59-0.4-0.77-0.7c-0.18-0.3-0.28-0.65-0.28-1.05v-0.01
				c0-0.56,0.21-1.01,0.63-1.35c0.42-0.34,1.01-0.53,1.76-0.57l2.44-0.14v0.86l-2.32,0.14c-0.44,0.03-0.78,0.13-1.03,0.32
				c-0.24,0.19-0.37,0.43-0.37,0.74v0.01c0,0.32,0.12,0.57,0.36,0.75c0.24,0.19,0.56,0.28,0.96,0.28c0.35,0,0.66-0.07,0.94-0.22
				c0.28-0.15,0.5-0.35,0.66-0.6s0.24-0.54,0.24-0.86v-1.95c0-0.4-0.13-0.72-0.38-0.95s-0.61-0.35-1.07-0.35
				c-0.42,0-0.76,0.09-1.03,0.28c-0.26,0.18-0.42,0.42-0.49,0.72l-0.01,0.06h-1.07l0.01-0.07c0.03-0.36,0.16-0.69,0.37-0.99
				c0.21-0.3,0.51-0.53,0.88-0.71c0.38-0.18,0.82-0.26,1.34-0.26c0.52,0,0.97,0.09,1.35,0.27s0.67,0.43,0.88,0.75
				c0.21,0.32,0.31,0.71,0.31,1.15v4.56h-1.1v-1.07h-0.03c-0.13,0.24-0.3,0.45-0.51,0.63s-0.45,0.32-0.71,0.42s-0.54,0.15-0.84,0.15
				C225.01,313.58,224.62,313.49,224.29,313.33z"/>
			<path class="st0" d="M230.02,306.85h1.11v1.12h0.03c0.11-0.38,0.3-0.68,0.57-0.91c0.27-0.22,0.59-0.34,0.96-0.34
				c0.1,0,0.19,0,0.26,0.02s0.14,0.02,0.18,0.03v1.07c-0.04-0.02-0.12-0.03-0.23-0.04c-0.11-0.01-0.23-0.02-0.37-0.02
				c-0.28,0-0.53,0.06-0.75,0.19s-0.38,0.31-0.5,0.55s-0.17,0.53-0.17,0.86v4.08h-1.11V306.85z"/>
		</g>
	</g>
	<g>
		<g>
			<path class="st0" d="M11.73,145.11v-1.32l7.72-3.17v-0.04l-7.72-3.17v-1.32h9.16v1.07h-7.08v0.52l-1.83-1.24l8.91,3.68v0.96
				l-8.91,3.68l1.83-1.24v0.52h7.08v1.07H11.73z"/>
			<path class="st0" d="M16.6,133.74v-2.4c0-0.66-0.17-1.16-0.51-1.52c-0.34-0.36-0.81-0.54-1.41-0.54h-0.01
				c-0.61,0-1.08,0.18-1.42,0.54c-0.34,0.36-0.51,0.87-0.51,1.52v2.4h-1.02v-2.69c0-0.58,0.12-1.08,0.37-1.52
				c0.25-0.44,0.59-0.79,1.03-1.04c0.44-0.25,0.95-0.38,1.53-0.38h0.01c0.58,0,1.09,0.13,1.54,0.38c0.44,0.25,0.79,0.6,1.04,1.04
				s0.37,0.95,0.37,1.52v2.69H16.6z M11.73,134.32v-1.14h9.16v1.14H11.73z"/>
			<path class="st0" d="M20.45,125.2c-0.39,0.63-0.95,1.12-1.66,1.46c-0.71,0.35-1.56,0.52-2.53,0.52h-0.01
				c-0.96,0-1.78-0.17-2.48-0.52c-0.7-0.34-1.24-0.83-1.62-1.46c-0.38-0.63-0.58-1.37-0.58-2.22c0-0.7,0.12-1.31,0.37-1.82
				c0.25-0.51,0.58-0.94,1.01-1.27c0.43-0.33,0.91-0.56,1.45-0.7l0.12-0.03v1.2l-0.07,0.03c-0.58,0.21-1.03,0.54-1.35,0.98
				s-0.48,0.98-0.48,1.62c0,0.63,0.14,1.17,0.43,1.62s0.71,0.8,1.25,1.04c0.54,0.24,1.19,0.37,1.94,0.37h0.01
				c0.77,0,1.43-0.12,1.99-0.37s0.99-0.59,1.29-1.05c0.3-0.45,0.45-0.99,0.45-1.61c0-0.54-0.11-1.02-0.33-1.43
				c-0.22-0.41-0.52-0.73-0.91-0.96c-0.39-0.23-0.84-0.35-1.35-0.35h-0.17v2.58h-1v-3.73h0.87c0.82,0,1.53,0.15,2.12,0.46
				c0.59,0.31,1.04,0.75,1.35,1.33c0.31,0.58,0.47,1.27,0.47,2.09C21.04,123.83,20.85,124.57,20.45,125.2z"/>
		</g>
	</g>
</g>
</svg>
